<svg width="50" height="50" viewBox="0 0 50 50" fill="none" xmlns="http://www.w3.org/2000/svg">
<path d="M40.625 0H9.375C4.2 0 0 4.2 0 9.375V40.625C0 45.8 4.2 50 9.375 50H40.625C45.825 50 50 45.8 50 40.625V9.375C50 4.2 45.8 0 40.625 0ZM37.45 19.4L37.475 20.2C37.475 28.325 31.275 37.725 19.95 37.725C16.475 37.725 13.25 36.7 10.525 34.95C11 35.025 11.5 35.05 12 35.05C14.875 35.05 17.55 34.05 19.65 32.4C16.95 32.35 14.7 30.575 13.9 28.125C14.275 28.2 14.65 28.225 15.05 28.225C15.625 28.225 16.175 28.15 16.675 28C13.875 27.425 11.75 24.95 11.75 21.975V21.9C12.55 22.35 13.475 22.625 14.5 22.65C12.85 21.55 11.75 19.675 11.75 17.55C11.75 16.425 12.05 15.35 12.6 14.45C15.625 18.175 20.175 20.625 25.275 20.875C25.175 20.425 25.125 19.95 25.125 19.475C25.125 16.1 27.875 13.325 31.275 13.325C33.05 13.325 34.65 14.075 35.775 15.275C37.175 15 38.5 14.5 39.675 13.8C39.225 15.25 38.25 16.45 36.95 17.2C38.2 17.05 39.4 16.725 40.5 16.225C39.675 17.45 38.625 18.525 37.45 19.4Z" fill="black"/>
</svg>
