<?xml version="1.0" encoding="utf-8"?>
<!-- Generator: Adobe Illustrator 25.3.1, SVG Export Plug-In . SVG Version: 6.00 Build 0)  -->
<svg version="1.1" id="レイヤー_1" xmlns="http://www.w3.org/2000/svg" xmlns:xlink="http://www.w3.org/1999/xlink" x="0px"
	 y="0px" viewBox="0 0 50 50" style="enable-background:new 0 0 50 50;" xml:space="preserve">
<style type="text/css">
	.st0{fill:#FFFFFF;}
</style>
<path d="M10.2,48.8c-5,0-9-4-9-9V10.2c0-5,4-9,9-9h29.5c5,0,9,4,9,9v29.5c0,5-4,9-9,9L10.2,48.8L10.2,48.8z"/>
<path d="M39.8,2.5c4.2,0,7.7,3.5,7.7,7.7v29.5c0,4.3-3.5,7.7-7.7,7.7H10.2c-4.3,0-7.7-3.4-7.7-7.7V10.2C2.5,6,6,2.5,10.2,2.5H39.8z
	 M39.8,0H10.2C4.6,0,0,4.6,0,10.2v29.5C0,45.4,4.6,50,10.2,50h29.5C45.4,50,50,45.4,50,39.8V10.2C50,4.6,45.4,0,39.8,0z"/>
<g>
	<path class="st0" d="M25,43.2c-3,0-5.9,0-8.9,0c-5.3,0-9.2-4-9.2-9.3c0-5.9,0-11.9,0-17.8c0-5.3,3.9-9.3,9.2-9.3
		c5.9,0,11.9,0,17.8,0c5.3,0,9.2,4,9.2,9.3c0,5.9,0,11.9,0,17.8c0,5.3-3.9,9.3-9.2,9.3C30.9,43.3,28,43.2,25,43.2z M9.8,25
		c0,2.7,0,5.5,0,8.2c0,4.1,3,7,7,7.1c5.5,0,10.9,0,16.4,0c4,0,7-3,7-7.1c0-5.5,0-11,0-16.5c0-4.1-3-7-7-7.1c-5.5,0-10.9,0-16.4,0
		c-4,0-7,3-7,7.1C9.8,19.5,9.8,22.3,9.8,25z"/>
	<path class="st0" d="M25.1,34.7c-5.2,0-9.4-4.2-9.4-9.4c0-5.2,4.2-9.4,9.4-9.4c5.1,0,9.3,4.2,9.3,9.3
		C34.4,30.4,30.2,34.7,25.1,34.7z M31.4,25.3c0-3.5-2.9-6.5-6.4-6.5c-3.5,0-6.4,2.8-6.5,6.4c0,3.6,2.9,6.6,6.4,6.6
		C28.5,31.8,31.4,28.9,31.4,25.3z"/>
	<path class="st0" d="M37.3,15.3c0,1.2-1,2.3-2.3,2.4c-1.3,0-2.4-1.1-2.4-2.4c0-1.2,1.1-2.3,2.4-2.3C36.2,13,37.3,14,37.3,15.3z"/>
</g>
</svg>
