<svg width="50" height="50" viewBox="0 0 50 50" fill="none" xmlns="http://www.w3.org/2000/svg">
<path d="M10.225 48.75C5.275 48.75 1.25 44.725 1.25 39.775V10.225C1.25 5.275 5.275 1.25 10.225 1.25H39.75C44.7 1.25 48.725 5.275 48.725 10.225V39.75C48.725 44.7 44.7 48.725 39.75 48.725H10.225V48.75Z" fill="black"/>
<path d="M39.775 2.5C44.025 2.5 47.5 5.975 47.5 10.225V39.75C47.5 44.025 44.025 47.475 39.775 47.475H10.225C5.975 47.5 2.5 44.025 2.5 39.775V10.225C2.5 5.975 5.975 2.5 10.225 2.5H39.775ZM39.775 0H10.225C4.6 0 0 4.6 0 10.225V39.75C0 45.4 4.6 50 10.225 50H39.75C45.375 50 49.975 45.4 49.975 39.775V10.225C50 4.6 45.4 0 39.775 0Z" fill="black"/>
<path d="M24.95 8.27502C14.825 8.27502 6.59998 14.85 6.59998 22.975C6.59998 30.2 13.125 36.225 21.725 37.425C21.925 37.45 22.125 37.475 22.325 37.5C25.25 38.1 22.725 41.775 23.675 42.525C24.775 43.375 33.125 37.8 38.2 33.125C38.925 32.5 39.6 31.85 40.2 31.125V31.1C40.35 30.95 40.45 30.8 40.55 30.675C42.275 28.425 43.3 25.775 43.3 22.95C43.3 14.85 35.075 8.27502 24.95 8.27502ZM18.975 26.7C18.975 27.225 18.55 27.65 18.025 27.65H14.4H14.375H14.3C13.775 27.65 13.35 27.225 13.35 26.7V19.6C13.35 19.075 13.775 18.65 14.3 18.65H14.375C14.9 18.65 15.325 19.075 15.325 19.6V25.65H18C18.525 25.65 18.95 26.075 18.95 26.6V26.7H18.975ZM21.725 26.7C21.725 27.225 21.3 27.65 20.775 27.65H20.7C20.175 27.65 19.75 27.225 19.75 26.7V19.6C19.75 19.075 20.175 18.65 20.7 18.65H20.775C21.3 18.65 21.725 19.075 21.725 19.6V26.7ZM30.4 26.7C30.4 26.95 30.3 27.2 30.125 27.375C30.075 27.45 29.975 27.5 29.9 27.55C29.775 27.625 29.625 27.65 29.45 27.65H29.375C29.25 27.65 29.125 27.625 29 27.575C28.85 27.525 28.725 27.425 28.625 27.3C28.6 27.275 28.575 27.225 28.55 27.2L25.075 22.45V26.7C25.075 27.225 24.65 27.65 24.125 27.65H24.025C23.5 27.65 23.075 27.225 23.075 26.7V19.6C23.075 19.075 23.5 18.65 24.025 18.65H24.1C24.45 18.65 24.775 18.85 24.925 19.125L28.375 23.775V19.6C28.375 19.075 28.8 18.65 29.325 18.65H29.4C29.925 18.65 30.35 19.075 30.35 19.6V26.7H30.4ZM37.225 19.7C37.225 20.225 36.8 20.65 36.275 20.65H33.6V22.175H36.275C36.8 22.175 37.225 22.6 37.225 23.125V23.2C37.225 23.725 36.8 24.15 36.275 24.15H33.6V25.675H36.275C36.8 25.675 37.225 26.1 37.225 26.625V26.7C37.225 27.225 36.8 27.65 36.275 27.65H32.65H32.625H32.55C32.025 27.65 31.6 27.225 31.6 26.7V19.625C31.6 19.1 32.025 18.675 32.55 18.675H32.625H32.65H36.275C36.8 18.675 37.225 19.1 37.225 19.625V19.7Z" fill="white"/>
</svg>
