<?xml version="1.0" encoding="utf-8"?>
<!-- Generator: Adobe Illustrator 25.3.1, SVG Export Plug-In . SVG Version: 6.00 Build 0)  -->
<svg version="1.1" id="レイヤー_1" xmlns="http://www.w3.org/2000/svg" xmlns:xlink="http://www.w3.org/1999/xlink" x="0px"
	 y="0px" viewBox="0 0 400 118.5" style="enable-background:new 0 0 400 118.5;" xml:space="preserve">
<style type="text/css">
	.st0{fill:#A6A6A6;}
	.st1{fill:#FFFFFF;stroke:#FFFFFF;stroke-width:0.2;stroke-miterlimit:10;}
	.st2{fill:#FFFFFF;}
	.st3{fill:url(#SVGID_1_);}
	.st4{fill:url(#SVGID_2_);}
	.st5{fill:url(#SVGID_3_);}
	.st6{fill:url(#SVGID_4_);}
	.st7{opacity:0.2;enable-background:new    ;}
	.st8{opacity:0.12;enable-background:new    ;}
	.st9{opacity:0.25;fill:#FFFFFF;enable-background:new    ;}
</style>
<image style="overflow:visible;" width="569" height="174" xlink:href="32C9A082.png"  transform="matrix(0.703 0 0 0.703 -1.9879 -430.2286)">
</image>
<g>
	<g>
		<path d="M385.2,118.5H14.8c-8.1,0-14.8-6.7-14.8-14.8V14.8C0,6.7,6.7,0,14.8,0h370.4c8.1,0,14.8,6.7,14.8,14.8v88.9
			C400,111.9,393.3,118.5,385.2,118.5z"/>
	</g>
	<g>
		<g>
			<path class="st0" d="M385.2,2.4c6.9,0,12.4,5.6,12.4,12.4v88.9c0,6.9-5.6,12.4-12.4,12.4H14.8c-6.9,0-12.4-5.6-12.4-12.4V14.8
				C2.4,8,8,2.4,14.8,2.4H385.2 M385.2,0H14.8C6.7,0,0,6.7,0,14.8v88.9c0,8.1,6.7,14.8,14.8,14.8h370.4c8.1,0,14.8-6.7,14.8-14.8
				V14.8C400,6.7,393.3,0,385.2,0L385.2,0z"/>
		</g>
	</g>
	<g>
		<path class="st1" d="M140.5,30.4c0,2.5-0.7,4.5-2.2,5.9c-1.7,1.8-3.9,2.6-6.5,2.6c-2.6,0-4.7-0.9-6.5-2.7c-1.8-1.8-2.7-4-2.7-6.6
			c0-2.6,0.9-4.8,2.7-6.6c1.8-1.8,4-2.7,6.5-2.7c1.3,0,2.5,0.2,3.6,0.7c1.2,0.5,2.1,1.2,2.8,2l-1.6,1.6c-1.2-1.4-2.8-2.1-4.9-2.1
			c-1.9,0-3.5,0.7-4.9,2c-1.4,1.3-2,3-2,5.1s0.7,3.8,2,5.1c1.4,1.3,3,2,4.9,2c2,0,3.6-0.7,5-2c0.9-0.9,1.4-2.1,1.5-3.6h-6.5V29h8.6
			C140.5,29.5,140.5,29.9,140.5,30.4z"/>
		<path class="st1" d="M154.2,22.9h-8.1v5.6h7.3v2.1h-7.3v5.6h8.1v2.2h-10.4V20.7h10.4V22.9z"/>
		<path class="st1" d="M163.8,38.5h-2.3V22.9h-5v-2.2h12.2v2.2h-5V38.5z"/>
		<path class="st1" d="M177.6,38.5V20.7h2.3v17.8H177.6z"/>
		<path class="st1" d="M190,38.5h-2.3V22.9h-5v-2.2H195v2.2h-5V38.5z"/>
		<path class="st1" d="M218.1,36.2c-1.7,1.8-3.9,2.7-6.5,2.7c-2.6,0-4.8-0.9-6.5-2.7c-1.7-1.8-2.6-4-2.6-6.6s0.9-4.8,2.6-6.6
			c1.7-1.8,3.9-2.7,6.5-2.7c2.6,0,4.8,0.9,6.5,2.7c1.8,1.8,2.6,4,2.6,6.6C220.7,32.2,219.8,34.4,218.1,36.2z M206.8,34.7
			c1.3,1.3,2.9,2,4.8,2c1.9,0,3.5-0.7,4.8-2c1.3-1.3,2-3,2-5.1s-0.7-3.8-2-5.1c-1.3-1.3-2.9-2-4.8-2c-1.9,0-3.5,0.7-4.8,2
			c-1.3,1.3-2,3-2,5.1S205.4,33.4,206.8,34.7z"/>
		<path class="st1" d="M223.9,38.5V20.7h2.8l8.6,13.8h0.1l-0.1-3.4V20.7h2.3v17.8h-2.4l-9-14.5h-0.1l0.1,3.4v11.1H223.9z"/>
	</g>
	<path class="st2" d="M201.9,64.4c-7,0-12.6,5.3-12.6,12.6c0,7.3,5.7,12.6,12.6,12.6c7,0,12.6-5.3,12.6-12.6
		C214.5,69.7,208.9,64.4,201.9,64.4z M201.9,84.7c-3.8,0-7.1-3.2-7.1-7.6c0-4.5,3.3-7.6,7.1-7.6c3.8,0,7.1,3.1,7.1,7.6
		C209,81.5,205.7,84.7,201.9,84.7z M174.3,64.4c-7,0-12.6,5.3-12.6,12.6c0,7.3,5.7,12.6,12.6,12.6c7,0,12.6-5.3,12.6-12.6
		C186.9,69.7,181.3,64.4,174.3,64.4z M174.3,84.7c-3.8,0-7.1-3.2-7.1-7.6c0-4.5,3.3-7.6,7.1-7.6c3.8,0,7.1,3.1,7.1,7.6
		C181.4,81.5,178.1,84.7,174.3,84.7z M141.5,68.3v5.3h12.8c-0.4,3-1.4,5.2-2.9,6.7c-1.9,1.9-4.8,3.9-9.9,3.9c-7.9,0-14-6.3-14-14.2
		s6.2-14.2,14-14.2c4.2,0,7.4,1.7,9.6,3.8l3.8-3.8c-3.2-3.1-7.4-5.4-13.4-5.4c-10.8,0-19.9,8.8-19.9,19.6c0,10.8,9.1,19.6,19.9,19.6
		c5.8,0,10.2-1.9,13.7-5.5c3.5-3.5,4.6-8.5,4.6-12.5c0-1.2-0.1-2.4-0.3-3.3H141.5z M275.7,72.5c-1.1-2.8-4.2-8-10.8-8
		c-6.5,0-11.9,5.1-11.9,12.6c0,7.1,5.3,12.6,12.5,12.6c5.8,0,9.1-3.5,10.5-5.6l-4.3-2.9c-1.4,2.1-3.4,3.5-6.2,3.5
		c-2.8,0-4.8-1.3-6.1-3.8l16.9-7L275.7,72.5z M258.5,76.7c-0.1-4.9,3.8-7.4,6.6-7.4c2.2,0,4.1,1.1,4.7,2.7L258.5,76.7z M244.8,88.9
		h5.5v-37h-5.5V88.9z M235.8,67.3h-0.2c-1.2-1.5-3.6-2.8-6.6-2.8c-6.3,0-12.1,5.5-12.1,12.6c0,7.1,5.8,12.6,12.1,12.6
		c3,0,5.4-1.3,6.6-2.9h0.2v1.8c0,4.8-2.6,7.4-6.7,7.4c-3.4,0-5.5-2.4-6.3-4.5l-4.8,2c1.4,3.3,5.1,7.4,11.2,7.4c6.5,0,12-3.8,12-13.1
		V65.2h-5.3V67.3z M229.4,84.7c-3.8,0-7-3.2-7-7.6c0-4.4,3.2-7.7,7-7.7c3.8,0,6.7,3.2,6.7,7.7C236.1,81.5,233.2,84.7,229.4,84.7z
		 M301.6,51.8h-13.2v37h5.5v-14h7.7c6.1,0,12.2-4.4,12.2-11.5S307.8,51.8,301.6,51.8z M301.8,69.7h-7.9V57h7.9
		c4.1,0,6.5,3.4,6.5,6.3C308.3,66.2,305.9,69.7,301.8,69.7z M336,64.4c-4,0-8.1,1.8-9.9,5.7l4.9,2c1-2,3-2.7,5.1-2.7
		c2.9,0,5.8,1.7,5.8,4.8v0.4c-1-0.6-3.1-1.4-5.8-1.4c-5.3,0-10.7,2.9-10.7,8.3c0,5,4.3,8.1,9.2,8.1c3.7,0,5.8-1.7,7.1-3.6h0.2v2.9
		h5.3V74.6C347.2,68.1,342.3,64.4,336,64.4z M335.3,84.7c-1.8,0-4.3-0.9-4.3-3.1c0-2.9,3.1-4,5.9-4c2.4,0,3.6,0.5,5.1,1.2
		C341.4,82.3,338.5,84.7,335.3,84.7z M366.6,65.2l-6.3,16.1h-0.2l-6.6-16.1h-6l9.9,22.4l-5.6,12.5h5.8l15.2-34.9H366.6z M316.8,88.9
		h5.5v-37h-5.5V88.9z"/>
	<g>
		
			<linearGradient id="SVGID_1_" gradientUnits="userSpaceOnUse" x1="64.5915" y1="102.3067" x2="14.8659" y2="52.581" gradientTransform="matrix(1 0 0 -1 0 128.1135)">
			<stop  offset="0" style="stop-color:#00A0FF"/>
			<stop  offset="6.574450e-03" style="stop-color:#00A1FF"/>
			<stop  offset="0.2601" style="stop-color:#00BEFF"/>
			<stop  offset="0.5122" style="stop-color:#00D2FF"/>
			<stop  offset="0.7604" style="stop-color:#00DFFF"/>
			<stop  offset="1" style="stop-color:#00E3FF"/>
		</linearGradient>
		<path class="st3" d="M30.9,22.3c-0.9,0.9-1.4,2.3-1.4,4.2V92c0,1.8,0.5,3.3,1.4,4.2l0.2,0.2l36.7-36.7v-0.4v-0.4L31.1,22.1
			L30.9,22.3z"/>
		
			<linearGradient id="SVGID_2_" gradientUnits="userSpaceOnUse" x1="100.2497" y1="68.8497" x2="28.5552" y2="68.8497" gradientTransform="matrix(1 0 0 -1 0 128.1135)">
			<stop  offset="0" style="stop-color:#FFE000"/>
			<stop  offset="0.4087" style="stop-color:#FFBD00"/>
			<stop  offset="0.7754" style="stop-color:#FFA500"/>
			<stop  offset="1" style="stop-color:#FF9C00"/>
		</linearGradient>
		<path class="st4" d="M80.1,71.9L67.8,59.7v-0.4v-0.4l12.2-12.2l0.3,0.2L94.9,55c4.1,2.4,4.1,6.2,0,8.6l-14.5,8.2L80.1,71.9z"/>
		
			<linearGradient id="SVGID_3_" gradientUnits="userSpaceOnUse" x1="73.561" y1="62.0507" x2="6.1291" y2="-5.3812" gradientTransform="matrix(1 0 0 -1 0 128.1135)">
			<stop  offset="0" style="stop-color:#FF3A44"/>
			<stop  offset="1" style="stop-color:#C31162"/>
		</linearGradient>
		<path class="st5" d="M80.4,71.8L67.8,59.3L30.9,96.2c1.4,1.4,3.6,1.6,6.2,0.2L80.4,71.8"/>
		
			<linearGradient id="SVGID_4_" gradientUnits="userSpaceOnUse" x1="21.6214" y1="127.5912" x2="51.7326" y2="97.48" gradientTransform="matrix(1 0 0 -1 0 128.1135)">
			<stop  offset="0" style="stop-color:#32A071"/>
			<stop  offset="6.850000e-02" style="stop-color:#2DA771"/>
			<stop  offset="0.4762" style="stop-color:#15CF74"/>
			<stop  offset="0.8009" style="stop-color:#06E775"/>
			<stop  offset="1" style="stop-color:#00F076"/>
		</linearGradient>
		<path class="st6" d="M80.4,46.7L37.1,22.2c-2.5-1.4-4.8-1.3-6.2,0.2l36.9,36.9L80.4,46.7z"/>
		<g>
			<path class="st7" d="M80.1,71.5l-43,24.4c-2.4,1.4-4.6,1.3-5.9,0l0,0l-0.2,0.2l0,0l0.2,0.2l0,0c1.4,1.2,3.5,1.3,5.9,0l43.3-24.6
				L80.1,71.5z"/>
			<path class="st8" d="M30.9,95.8c-0.9-0.9-1.4-2.3-1.4-4.2V92c0,1.8,0.5,3.3,1.4,4.2l0.2-0.2L30.9,95.8z"/>
		</g>
		<path class="st8" d="M94.9,63.1l-14.8,8.4l0.3,0.3l14.5-8.2c2.1-1.2,3.1-2.7,3.1-4.3l0,0C97.8,60.7,96.7,62,94.9,63.1z"/>
		<path class="st9" d="M37.1,22.6l57.8,32.8c1.9,1.1,2.9,2.4,3.1,3.8l0,0c0-1.6-1-3.1-3.1-4.3L37.1,22.2c-4.1-2.4-7.5-0.4-7.5,4.3
			v0.4C29.5,22.2,32.9,20.2,37.1,22.6z"/>
	</g>
</g>
</svg>
