<?xml version="1.0" encoding="utf-8"?>
<!-- Generator: Adobe Illustrator 25.3.1, SVG Export Plug-In . SVG Version: 6.00 Build 0)  -->
<svg version="1.1" id="レイヤー_1" xmlns="http://www.w3.org/2000/svg" xmlns:xlink="http://www.w3.org/1999/xlink" x="0px"
	 y="0px" viewBox="0 0 400 133.7" style="enable-background:new 0 0 400 133.7;" xml:space="preserve">
<style type="text/css">
	.st0{fill:#A6A6A6;}
	.st1{fill:#FFFFFF;}
</style>
<g>
	<g>
		<g>
			<path class="st0" d="M368.1,0H31.9c-1.2,0-2.4,0-3.7,0c-1,0-2,0-3.1,0c-2.2,0-4.5,0.2-6.7,0.6c-2.2,0.4-4.4,1.1-6.4,2.1
				c-2,1-3.8,2.4-5.4,3.9c-1.6,1.6-2.9,3.4-3.9,5.4c-1,2-1.7,4.1-2.1,6.4c-0.4,2.2-0.6,4.4-0.6,6.7c0,1,0,2.1-0.1,3.1v77.3
				c0,1,0,2,0.1,3.1c0,2.2,0.2,4.5,0.6,6.7c0.4,2.2,1.1,4.4,2.1,6.4c1,2,2.3,3.8,3.9,5.4c1.6,1.6,3.4,2.9,5.4,3.9
				c2,1,4.1,1.7,6.4,2.1c2.2,0.4,4.5,0.6,6.7,0.6c1,0,2,0,3.1,0c1.2,0,2.4,0,3.7,0h336.3c1.2,0,2.4,0,3.6,0c1,0,2.1,0,3.1,0
				c2.2,0,4.5-0.2,6.7-0.6c2.2-0.4,4.4-1.1,6.4-2.1c2-1,3.8-2.3,5.4-3.9c1.6-1.6,2.9-3.4,3.9-5.4c1-2,1.7-4.2,2.1-6.4
				c0.4-2.2,0.6-4.4,0.6-6.7c0-1,0-2,0-3.1c0-1.2,0-2.4,0-3.7v-70c0-1.2,0-2.4,0-3.6c0-1,0-2.1,0-3.1c0-2.2-0.2-4.5-0.6-6.7
				c-0.4-2.2-1.1-4.4-2.1-6.4c-2.1-4-5.3-7.3-9.4-9.4c-2-1-4.2-1.7-6.4-2.1c-2.2-0.4-4.4-0.6-6.7-0.6c-1,0-2.1,0-3.1,0
				C370.6,0,369.3,0,368.1,0L368.1,0z"/>
			<path d="M28.2,130.8c-1,0-2,0-3,0c-2.1,0-4.2-0.2-6.2-0.5c-1.9-0.3-3.8-0.9-5.5-1.8c-1.7-0.9-3.3-2-4.7-3.4
				c-1.4-1.4-2.5-2.9-3.4-4.7c-0.9-1.7-1.5-3.6-1.8-5.5c-0.3-2.1-0.5-4.2-0.6-6.3c0-0.7,0-3.1,0-3.1V28.2c0,0,0-2.3,0-3
				C3,23.1,3.2,21,3.5,19c0.3-1.9,0.9-3.8,1.8-5.6c0.9-1.7,2-3.3,3.4-4.7c1.4-1.4,3-2.5,4.7-3.4c1.7-0.9,3.6-1.5,5.5-1.8
				C21,3.2,23.1,3,25.2,3l3,0h343.5l3.1,0c2.1,0,4.2,0.2,6.2,0.5c1.9,0.3,3.8,0.9,5.6,1.8c3.5,1.8,6.3,4.6,8.1,8.1
				c0.9,1.7,1.5,3.6,1.8,5.5c0.3,2.1,0.5,4.2,0.6,6.3c0,0.9,0,2,0,3c0,1.3,0,2.4,0,3.6v70c0,1.2,0,2.4,0,3.6c0,1.1,0,2.1,0,3.1
				c0,2.1-0.2,4.1-0.6,6.2c-0.3,1.9-0.9,3.8-1.8,5.6c-0.9,1.7-2,3.3-3.4,4.6c-1.4,1.4-2.9,2.5-4.7,3.4c-1.8,0.9-3.6,1.5-5.6,1.8
				c-2.1,0.3-4.2,0.5-6.2,0.5c-1,0-2,0-3,0l-3.6,0L28.2,130.8z"/>
		</g>
		<g id="_Group__1_">
			<g id="_Group_2_1_">
				<g id="_Group_3_1_">
					<path id="_Path__1_" class="st1" d="M82.8,67.9c0.1-5.7,3-10.9,7.9-13.9c-3.1-4.4-8-7-13.3-7.2c-5.6-0.6-11.1,3.4-13.9,3.4
						c-2.9,0-7.3-3.3-12.1-3.2c-6.2,0.2-11.9,3.7-15,9.1c-6.5,11.2-1.6,27.6,4.6,36.7c3.1,4.4,6.7,9.4,11.5,9.2c4.6-0.2,6.4-3,12-3
						c5.5,0,7.2,3,12,2.8c5-0.1,8.1-4.4,11.1-8.9c2.2-3.2,3.9-6.6,5.1-10.3C86.6,80.1,82.8,74.3,82.8,67.9z"/>
					<path id="_Path_2_1_" class="st1" d="M73.7,40.8c2.7-3.3,4-7.4,3.7-11.7c-4.1,0.4-8,2.4-10.7,5.5c-2.7,3.1-4.1,7.1-3.8,11.2
						C67,46,71,44.1,73.7,40.8z"/>
				</g>
			</g>
			<g>
				<path class="st1" d="M141.4,90.7h-15.8l-3.8,11.2h-6.7l15-41.5h7l15,41.5h-6.8L141.4,90.7z M127.2,85.5h12.5l-6.2-18.2h-0.2
					L127.2,85.5z"/>
				<path class="st1" d="M184.4,86.8c0,9.4-5,15.4-12.6,15.4c-3.9,0.2-7.6-1.9-9.5-5.3h-0.1v15h-6.2V71.7h6v5h0.1
					c2-3.4,5.7-5.5,9.6-5.4C179.3,71.4,184.4,77.4,184.4,86.8z M178,86.8c0-6.1-3.2-10.2-8-10.2c-4.7,0-7.9,4.1-7.9,10.2
					c0,6.1,3.2,10.2,7.9,10.2C174.8,97,178,93,178,86.8z"/>
				<path class="st1" d="M217.7,86.8c0,9.4-5,15.4-12.6,15.4c-3.9,0.2-7.6-1.9-9.5-5.3h-0.1v15h-6.2V71.7h6v5h0.1
					c2-3.4,5.7-5.5,9.6-5.4C212.6,71.4,217.7,77.4,217.7,86.8z M211.3,86.8c0-6.1-3.2-10.2-8-10.2c-4.7,0-7.9,4.1-7.9,10.2
					c0,6.1,3.2,10.2,7.9,10.2C208.1,97,211.3,93,211.3,86.8L211.3,86.8z"/>
				<path class="st1" d="M239.7,90.4c0.5,4.1,4.5,6.8,9.9,6.8c5.2,0,9-2.7,9-6.4c0-3.2-2.3-5.2-7.7-6.5l-5.4-1.3
					c-7.6-1.8-11.2-5.4-11.2-11.2c0-7.2,6.2-12.1,15.1-12.1c8.8,0,14.8,4.9,15,12.1h-6.3c-0.4-4.1-3.8-6.6-8.8-6.6s-8.4,2.5-8.4,6.2
					c0,2.9,2.2,4.7,7.5,6l4.6,1.1c8.5,2,12.1,5.4,12.1,11.5c0,7.8-6.2,12.6-16,12.6c-9.2,0-15.4-4.7-15.8-12.3L239.7,90.4z"/>
				<path class="st1" d="M278.6,64.5v7.2h5.8v4.9h-5.8v16.7c0,2.6,1.2,3.8,3.7,3.8c0.7,0,1.4-0.1,2-0.1v4.9
					c-1.1,0.2-2.3,0.3-3.5,0.3c-6.1,0-8.5-2.3-8.5-8.2V76.6H268v-4.9h4.4v-7.2H278.6z"/>
				<path class="st1" d="M287.7,86.8c0-9.5,5.6-15.5,14.4-15.5c8.8,0,14.4,6,14.4,15.5c0,9.5-5.6,15.5-14.4,15.5
					C293.2,102.3,287.7,96.4,287.7,86.8z M310.1,86.8c0-6.5-3-10.4-8-10.4c-5,0-8,3.9-8,10.4c0,6.6,3,10.4,8,10.4
					C307.1,97.2,310.1,93.4,310.1,86.8L310.1,86.8z"/>
				<path class="st1" d="M321.5,71.7h5.9v5.2h0.1c0.8-3.3,3.9-5.6,7.3-5.5c0.7,0,1.4,0.1,2.1,0.2v5.8c-0.9-0.3-1.8-0.4-2.8-0.4
					c-3.5-0.1-6.4,2.5-6.5,6c0,0.3,0,0.6,0,1v18h-6.2L321.5,71.7z"/>
				<path class="st1" d="M365.6,93.1c-0.8,5.5-6.2,9.3-13,9.3c-8.8,0-14.3-5.9-14.3-15.4c0-9.5,5.5-15.6,14-15.6
					c8.4,0,13.6,5.8,13.6,14.9v2.1h-21.4v0.4c-0.4,4.3,2.8,8.2,7.2,8.5c0.3,0,0.7,0,1,0c3,0.3,5.9-1.4,7-4.3L365.6,93.1z M344.6,84
					h15.1c0.2-4-2.8-7.4-6.9-7.7c-0.2,0-0.4,0-0.6,0C348.1,76.3,344.7,79.7,344.6,84C344.6,84,344.6,84,344.6,84z"/>
			</g>
		</g>
	</g>
	<g id="_Group_4_1_">
		<g>
			<path class="st1" d="M126.4,29.2c4.9-0.3,9.1,3.3,9.4,8.2c0,0.6,0,1.2,0,1.7c0,6.4-3.4,10-9.4,10h-7.2V29.2H126.4z M122.3,46.3
				h3.8c3.5,0.2,6.4-2.4,6.6-5.9c0-0.4,0-0.9-0.1-1.3c0.5-3.4-1.9-6.6-5.4-7.1c-0.4-0.1-0.8-0.1-1.2,0h-3.8V46.3z"/>
			<path class="st1" d="M139.3,41.6c-0.4-3.9,2.5-7.4,6.4-7.8c3.9-0.4,7.4,2.5,7.8,6.4c0,0.5,0,0.9,0,1.4c0.4,3.9-2.5,7.4-6.4,7.8
				c-3.9,0.4-7.4-2.5-7.8-6.4C139.3,42.5,139.3,42.1,139.3,41.6z M150.5,41.6c0-3.3-1.5-5.2-4-5.2c-2.6,0-4,1.9-4,5.2
				c0,3.3,1.5,5.2,4,5.2C149,46.8,150.5,44.9,150.5,41.6L150.5,41.6z"/>
			<path class="st1" d="M172.4,49.1h-3.1L166.2,38H166l-3.1,11.1h-3.1l-4.1-15.1h3l2.7,11.5h0.2l3.1-11.5h2.8l3.1,11.5h0.2l2.7-11.5
				h3L172.4,49.1z"/>
			<path class="st1" d="M180,34.1h2.9v2.4h0.2c0.8-1.8,2.6-2.8,4.5-2.7c2.7-0.2,5,1.8,5.2,4.5c0,0.4,0,0.7,0,1.1v9.7h-3v-9
				c0-2.4-1.1-3.6-3.2-3.6c-1.9-0.1-3.5,1.4-3.6,3.3c0,0.2,0,0.4,0,0.5v8.8h-3L180,34.1z"/>
			<path class="st1" d="M197.5,28.2h3v20.9h-3V28.2z"/>
			<path class="st1" d="M204.6,41.6c-0.4-3.9,2.5-7.4,6.4-7.8c3.9-0.4,7.4,2.5,7.8,6.4c0,0.5,0,0.9,0,1.4c0.4,3.9-2.5,7.4-6.4,7.8
				s-7.4-2.5-7.8-6.4C204.6,42.5,204.6,42.1,204.6,41.6z M215.8,41.6c0-3.3-1.5-5.2-4-5.2c-2.6,0-4,1.9-4,5.2c0,3.3,1.5,5.2,4,5.2
				C214.3,46.8,215.8,44.9,215.8,41.6z"/>
			<path class="st1" d="M222,44.9c0-2.7,2-4.3,5.6-4.5l4.1-0.2v-1.3c0-1.6-1.1-2.5-3.1-2.5c-1.7,0-2.8,0.6-3.1,1.7h-2.9
				c0.3-2.6,2.7-4.2,6.2-4.2c3.8,0,5.9,1.9,5.9,5.1v10.3h-2.9V47h-0.2c-1,1.5-2.7,2.4-4.5,2.4c-2.5,0.3-4.7-1.6-5-4.1
				C222,45.2,222,45,222,44.9z M231.6,43.6v-1.3l-3.7,0.2c-2.1,0.1-3,0.8-3,2.2c0,1.4,1.2,2.1,2.8,2.1c1.9,0.2,3.7-1.2,3.9-3.2
				C231.6,43.7,231.6,43.6,231.6,43.6z"/>
			<path class="st1" d="M238.5,41.6c0-4.8,2.4-7.8,6.2-7.8c1.9-0.1,3.7,0.9,4.6,2.6h0.2v-8.3h3v20.9h-2.8v-2.4h-0.2
				c-1,1.7-2.8,2.7-4.7,2.6C240.9,49.4,238.5,46.4,238.5,41.6z M241.6,41.6c0,3.2,1.5,5.1,4,5.1c2.5,0,4.1-1.9,4.1-5.1
				c0-3.1-1.6-5.1-4.1-5.1C243.1,36.5,241.6,38.4,241.6,41.6L241.6,41.6z"/>
			<path class="st1" d="M264.8,41.6c-0.4-3.9,2.5-7.4,6.4-7.8c3.9-0.4,7.4,2.5,7.8,6.4c0,0.5,0,0.9,0,1.4c0.4,3.9-2.5,7.4-6.4,7.8
				c-3.9,0.4-7.4-2.5-7.8-6.4C264.8,42.5,264.8,42.1,264.8,41.6z M276,41.6c0-3.3-1.5-5.2-4-5.2c-2.6,0-4,1.9-4,5.2
				c0,3.3,1.5,5.2,4,5.2C274.5,46.8,276,44.9,276,41.6z"/>
			<path class="st1" d="M283,34.1h2.9v2.4h0.2c0.8-1.8,2.6-2.8,4.5-2.7c2.7-0.2,5,1.8,5.2,4.5c0,0.4,0,0.7,0,1.1v9.7h-3v-9
				c0-2.4-1.1-3.6-3.2-3.6c-1.9-0.1-3.5,1.4-3.6,3.3c0,0.2,0,0.4,0,0.5v8.8h-3V34.1z"/>
			<path class="st1" d="M312.6,30.3v3.8h3.3v2.5h-3.3v7.7c0,1.6,0.6,2.3,2.1,2.3c0.4,0,0.8,0,1.1-0.1v2.5c-0.5,0.1-1.1,0.1-1.6,0.2
				c-3.3,0-4.6-1.2-4.6-4.1v-8.5h-2.4v-2.5h2.4v-3.8H312.6z"/>
			<path class="st1" d="M319.9,28.2h2.9v8.3h0.2c0.8-1.8,2.6-2.9,4.6-2.7c2.7-0.1,5.1,1.9,5.2,4.7c0,0.3,0,0.6,0,0.9v9.7h-3v-9
				c0-2.4-1.1-3.6-3.2-3.6c-1.9-0.2-3.6,1.3-3.8,3.2c0,0.2,0,0.4,0,0.6v8.8h-3L319.9,28.2z"/>
			<path class="st1" d="M350.2,45.1c-0.8,2.8-3.6,4.7-6.5,4.4c-3.8,0.1-6.9-2.9-7-6.7c0-0.4,0-0.7,0.1-1.1c-0.5-3.8,2.2-7.3,6-7.8
				c0.3,0,0.7-0.1,1-0.1c4.2,0,6.7,2.9,6.7,7.6v1h-10.6v0.2c-0.2,2.2,1.4,4.1,3.6,4.3c0.1,0,0.3,0,0.4,0c1.5,0.2,2.9-0.5,3.6-1.8
				L350.2,45.1z M339.7,40.2h7.6c0.1-2-1.4-3.7-3.4-3.9c-0.1,0-0.2,0-0.4,0C341.5,36.3,339.8,38,339.7,40.2
				C339.7,40.1,339.7,40.2,339.7,40.2L339.7,40.2z"/>
		</g>
	</g>
</g>
</svg>
