<svg width="27" height="27" viewBox="0 0 27 27" fill="none" xmlns="http://www.w3.org/2000/svg">
<path d="M5.52149 26.325C2.84849 26.325 0.674988 24.1515 0.674988 21.4785V5.52155C0.674988 2.84855 2.84849 0.675049 5.52149 0.675049H21.465C24.138 0.675049 26.3115 2.84855 26.3115 5.52155V21.465C26.3115 24.138 24.138 26.3115 21.465 26.3115H5.52149V26.325Z" fill="black"/>
<path d="M21.4785 1.35C23.7735 1.35 25.65 3.2265 25.65 5.5215V21.465C25.65 23.7735 23.7735 25.6365 21.4785 25.6365H5.5215C3.2265 25.65 1.35 23.7735 1.35 21.4785V5.5215C1.35 3.2265 3.2265 1.35 5.5215 1.35H21.4785ZM21.4785 0H5.5215C2.484 0 0 2.484 0 5.5215V21.465C0 24.516 2.484 27 5.5215 27H21.465C24.5025 27 26.9865 24.516 26.9865 21.4785V5.5215C27 2.484 24.516 0 21.4785 0Z" fill="black"/>
<path d="M13.473 4.46851C8.00553 4.46851 3.56403 8.01901 3.56403 12.4065C3.56403 16.308 7.08753 19.5615 11.7315 20.2095C11.8395 20.223 11.9475 20.2365 12.0555 20.25C13.635 20.574 12.2715 22.5585 12.7845 22.9635C13.3785 23.4225 17.8875 20.412 20.628 17.8875C21.0195 17.55 21.384 17.199 21.708 16.8075V16.794C21.789 16.713 21.843 16.632 21.897 16.5645C22.8285 15.3495 23.382 13.9185 23.382 12.393C23.382 8.01901 18.9405 4.46851 13.473 4.46851ZM10.2465 14.418C10.2465 14.7015 10.017 14.931 9.73353 14.931H7.77603H7.76253H7.72203C7.43853 14.931 7.20903 14.7015 7.20903 14.418V10.584C7.20903 10.3005 7.43853 10.071 7.72203 10.071H7.76253C8.04603 10.071 8.27553 10.3005 8.27553 10.584V13.851H9.72003C10.0035 13.851 10.233 14.0805 10.233 14.364V14.418H10.2465ZM11.7315 14.418C11.7315 14.7015 11.502 14.931 11.2185 14.931H11.178C10.8945 14.931 10.665 14.7015 10.665 14.418V10.584C10.665 10.3005 10.8945 10.071 11.178 10.071H11.2185C11.502 10.071 11.7315 10.3005 11.7315 10.584V14.418ZM16.416 14.418C16.416 14.553 16.362 14.688 16.2675 14.7825C16.2405 14.823 16.1865 14.85 16.146 14.877C16.0785 14.9175 15.9975 14.931 15.903 14.931H15.8625C15.795 14.931 15.7275 14.9175 15.66 14.8905C15.579 14.8635 15.5115 14.8095 15.4575 14.742C15.444 14.7285 15.4305 14.7015 15.417 14.688L13.5405 12.123V14.418C13.5405 14.7015 13.311 14.931 13.0275 14.931H12.9735C12.69 14.931 12.4605 14.7015 12.4605 14.418V10.584C12.4605 10.3005 12.69 10.071 12.9735 10.071H13.014C13.203 10.071 13.3785 10.179 13.4595 10.3275L15.3225 12.8385V10.584C15.3225 10.3005 15.552 10.071 15.8355 10.071H15.876C16.1595 10.071 16.389 10.3005 16.389 10.584V14.418H16.416ZM20.1015 10.638C20.1015 10.9215 19.872 11.151 19.5885 11.151H18.144V11.9745H19.5885C19.872 11.9745 20.1015 12.204 20.1015 12.4875V12.528C20.1015 12.8115 19.872 13.041 19.5885 13.041H18.144V13.8645H19.5885C19.872 13.8645 20.1015 14.094 20.1015 14.3775V14.418C20.1015 14.7015 19.872 14.931 19.5885 14.931H17.631H17.6175H17.577C17.2935 14.931 17.064 14.7015 17.064 14.418V10.5975C17.064 10.314 17.2935 10.0845 17.577 10.0845H17.6175H17.631H19.5885C19.872 10.0845 20.1015 10.314 20.1015 10.5975V10.638Z" fill="white"/>
</svg>
