<svg width="26" height="25" viewBox="0 0 26 25" fill="none" xmlns="http://www.w3.org/2000/svg">
<path d="M18.775 0H8.20005C4.22505 0 0.987549 3.225 0.987549 7.2125V17.775C0.987549 21.7625 4.21255 25 8.20005 25H18.7625C22.75 25 25.975 21.775 25.975 17.7875V7.2125C25.9875 3.225 22.75 0 18.775 0ZM23.6875 17.975C23.6875 20.625 21.5375 22.7625 18.9 22.7625H8.07505C5.42505 22.7625 3.28755 20.6125 3.28755 17.975V7.15C3.28755 4.5 5.43755 2.3625 8.07505 2.3625H18.8875C21.5375 2.3625 23.675 4.5125 23.675 7.15V17.975H23.6875Z" fill="white"/>
<path d="M13.4876 6.07495C9.90006 6.07495 7.00006 8.97495 7.00006 12.5625C7.00006 16.15 9.90006 19.0499 13.4876 19.0499C17.0751 19.0499 19.9751 16.15 19.9751 12.5625C19.9751 8.97495 17.0751 6.07495 13.4876 6.07495ZM13.4876 16.7625C11.1626 16.7625 9.28756 14.875 9.28756 12.5625C9.28756 10.2375 11.1751 8.36245 13.4876 8.36245C15.8126 8.36245 17.6876 10.25 17.6876 12.5625C17.6876 14.8875 15.8126 16.7625 13.4876 16.7625Z" fill="white"/>
<path d="M20.1875 7.3375C21.0229 7.3375 21.7 6.66033 21.7 5.825C21.7 4.98967 21.0229 4.3125 20.1875 4.3125C19.3522 4.3125 18.675 4.98967 18.675 5.825C18.675 6.66033 19.3522 7.3375 20.1875 7.3375Z" fill="white"/>
</svg>
