<svg width="27" height="27" viewBox="0 0 27 27" fill="none" xmlns="http://www.w3.org/2000/svg">
<path d="M6.75 27H20.25C23.976 27 27 23.976 27 20.25V6.75C27 3.024 23.976 0 20.25 0H6.75C3.024 0 0 3.024 0 6.75V20.25C0 23.976 3.024 27 6.75 27Z" fill="black"/>
<path d="M17.685 3.59106H9.31499C6.15599 3.59106 3.60449 6.15606 3.60449 9.30156V17.6716C3.60449 20.8306 6.16949 23.3821 9.31499 23.3821H17.685C20.844 23.3821 23.3955 20.8171 23.3955 17.6716V9.31506C23.409 6.15606 20.844 3.59106 17.685 3.59106ZM21.573 17.8336C21.573 19.9261 19.872 21.6271 17.7795 21.6271H9.22049C7.12799 21.6271 5.42699 19.9261 5.42699 17.8336V9.26106C5.42699 7.16856 7.12799 5.46756 9.22049 5.46756H17.793C19.8855 5.46756 21.5865 7.16856 21.5865 9.26106V17.8336H21.573Z" fill="white"/>
<path d="M13.5 8.41064C10.665 8.41064 8.35651 10.7056 8.35651 13.5541C8.35651 16.4026 10.6515 18.6976 13.5 18.6976C16.3485 18.6976 18.6435 16.4026 18.6435 13.5541C18.6435 10.7056 16.335 8.41064 13.5 8.41064ZM13.5 16.8751C11.664 16.8751 10.1655 15.3901 10.1655 13.5406C10.1655 11.6911 11.664 10.2196 13.5 10.2196C15.336 10.2196 16.8345 11.7046 16.8345 13.5541C16.8345 15.4036 15.336 16.8751 13.5 16.8751Z" fill="white"/>
<path d="M18.8055 9.40959C19.4691 9.40959 20.007 8.87166 20.007 8.20809C20.007 7.54452 19.4691 7.00659 18.8055 7.00659C18.1419 7.00659 17.604 7.54452 17.604 8.20809C17.604 8.87166 18.1419 9.40959 18.8055 9.40959Z" fill="white"/>
</svg>
