<svg width="22" height="25" viewBox="0 0 22 25" fill="none" xmlns="http://www.w3.org/2000/svg">
<g clip-path="url(#clip0_64_184)">
<path d="M15.6553 10.7406C15.2169 10.7406 14.8593 10.383 14.8593 9.94459C14.8593 9.5062 15.2169 9.14856 15.6553 9.14856C16.0937 9.14856 16.4513 9.5062 16.4513 9.94459C16.4513 10.383 16.0937 10.7406 15.6553 10.7406ZM19.7277 6.4259H1.90355L0 25H21.6313L19.7277 6.4259ZM5.976 10.7406C5.53761 10.7406 5.17997 10.383 5.17997 9.94459C5.17997 9.5062 5.53761 9.14856 5.976 9.14856C6.4144 9.14856 6.77203 9.5062 6.77203 9.94459C6.77203 10.383 6.4144 10.7406 5.976 10.7406Z" fill="white"/>
<path d="M7.81035 2.52653C8.58331 1.75358 9.64468 1.28057 10.8214 1.28057C11.9982 1.28057 13.0595 1.75358 13.8325 2.52653C14.6055 3.29949 15.0785 4.36087 15.0785 5.53761H16.359C16.3475 2.48039 13.8671 0 10.8099 0C7.7642 0 5.28381 2.48039 5.28381 5.52607H6.56439C6.56439 4.34933 7.03739 3.29949 7.81035 2.52653Z" fill="white"/>
</g>
<defs>
<clipPath id="clip0_64_184">
<rect width="21.6313" height="25" fill="white"/>
</clipPath>
</defs>
</svg>
