<svg width="18" height="18" viewBox="0 0 18 18" fill="none" xmlns="http://www.w3.org/2000/svg">
<g clip-path="url(#clip0_4_81)">
<path d="M9.00318 15.9605C5.16555 15.9605 2.03953 12.8408 2.03953 8.99682C2.03953 5.15284 5.16555 2.03953 9.00318 2.03953C12.8408 2.03953 15.9668 5.15919 15.9668 9.00318C15.9668 12.8472 12.8408 15.9605 9.00318 15.9605ZM9.00318 0C4.02824 0 0 4.02824 0 9.00318C0 13.9718 4.02824 18.0064 9.00318 18.0064C13.9781 18.0064 18.0064 13.9781 18.0064 9.00318C18 4.02824 13.9718 0 9.00318 0Z" fill="#333333"/>
<path d="M9.0032 2.6749C5.51503 2.6749 2.67493 5.51499 2.67493 9.00317C2.67493 12.4913 5.51503 15.3314 9.0032 15.3314C12.4914 15.3314 15.3315 12.4913 15.3315 9.00317C15.3315 5.51499 12.4914 2.6749 9.0032 2.6749ZM9.61951 11.9068H7.6181C7.09709 11.9068 6.83659 11.6336 6.83659 11.0808V6.78573C6.83659 6.23932 7.09709 5.95975 7.6181 5.95975H9.49243C10.8521 5.95975 11.5002 6.53158 11.5002 7.63077C11.5002 8.09459 11.3604 8.45675 11.0427 8.65372C11.4748 8.8761 11.7607 9.41616 11.7607 9.98799C11.7607 11.3032 11.0745 11.9068 9.61951 11.9068ZM9.53056 7.2432H8.08827V8.15177H9.63857C10.1024 8.15177 10.2549 7.97387 10.2549 7.66889C10.2549 7.35756 10.0579 7.2432 9.53056 7.2432ZM9.62586 9.35262H8.08827V10.6234H9.62586C10.2358 10.6234 10.5027 10.4264 10.5027 9.98164C10.5027 9.55594 10.2295 9.35262 9.62586 9.35262Z" fill="#333333"/>
</g>
<defs>
<clipPath id="clip0_4_81">
<rect width="18" height="18" fill="white"/>
</clipPath>
</defs>
</svg>
