<svg width="24" height="18" viewBox="0 0 24 18" fill="none" xmlns="http://www.w3.org/2000/svg">
<path d="M22.903 0H11.6011C11.2355 0 10.9363 0.299169 10.9363 0.66482V11.1025C10.9363 11.4681 11.2355 11.7673 11.6011 11.7673H22.903C23.2687 11.7673 23.5679 11.4681 23.5679 11.1025V0.66482C23.5679 0.299169 23.2687 0 22.903 0Z" fill="#333333"/>
<path d="M5.36839 16.7784C4.81161 16.7784 4.36285 16.3296 4.36285 15.7728C4.36285 15.2161 4.81161 14.7673 5.36839 14.7673C5.92518 14.7673 6.37393 15.2161 6.37393 15.7728C6.37393 16.3213 5.92518 16.7784 5.36839 16.7784ZM5.36839 13.5291C4.13017 13.5291 3.13293 14.5346 3.13293 15.7645C3.13293 17.0028 4.13848 18 5.36839 18C6.60662 18 7.60385 16.9945 7.60385 15.7645C7.60385 14.5346 6.60662 13.5291 5.36839 13.5291Z" fill="#333333"/>
<path d="M18.5817 16.7784C18.0249 16.7784 17.5762 16.3296 17.5762 15.7728C17.5762 15.2161 18.0249 14.7673 18.5817 14.7673C19.1385 14.7673 19.5873 15.2161 19.5873 15.7728C19.5956 16.3213 19.1385 16.7784 18.5817 16.7784ZM18.5817 13.5291C17.3435 13.5291 16.3463 14.5346 16.3463 15.7645C16.3463 17.0028 17.3518 18 18.5817 18C19.8199 18 20.8172 16.9945 20.8172 15.7645C20.8255 14.5346 19.8199 13.5291 18.5817 13.5291Z" fill="#333333"/>
<path d="M2.01939 8.08586C2.01939 7.9529 2.06094 7.82825 2.14405 7.72852L4.45429 4.88642C4.56233 4.75345 4.72853 4.67866 4.89474 4.67866H7.15513C7.47091 4.67866 7.72853 4.93628 7.72853 5.25207V8.47645C7.72853 8.79224 7.47091 9.04985 7.15513 9.04985H2.58449C2.2687 9.04985 2.01108 8.79224 2.01108 8.47645V8.08586H2.01939ZM9.20776 3.14127H4.16344C3.99723 3.14127 3.83934 3.21606 3.73961 3.34071L0.124655 7.67866C0.0415525 7.77838 0 7.90304 0 8.036V11.8421V13.8282C0 14.1357 0.249306 14.385 0.556785 14.385H2.25208C2.78393 13.1967 3.98061 12.3573 5.37673 12.3573C6.76454 12.3573 7.96122 13.1884 8.50138 14.385H9.77285V3.68974C9.76454 3.38226 9.51524 3.14127 9.20776 3.14127Z" fill="#333333"/>
<path d="M11.2106 12.8144C11.036 12.8144 10.9031 12.9557 10.9031 13.1302V14.061C10.9031 14.2355 11.0443 14.3684 11.2106 14.3684H15.4654C15.7563 13.7119 16.2549 13.1718 16.8698 12.8144H11.2106Z" fill="#333333"/>
<path d="M23.2188 12.8144H20.3102C20.9252 13.1718 21.4155 13.7202 21.7147 14.3684H23.2271C23.4016 14.3684 23.5346 14.2272 23.5346 14.061V13.1302C23.5263 12.9557 23.385 12.8144 23.2188 12.8144Z" fill="#333333"/>
</svg>
