<svg width="25" height="25" viewBox="0 0 25 25" fill="none" xmlns="http://www.w3.org/2000/svg">
<path d="M19.8875 1.25C22.0125 1.25 23.75 2.9875 23.75 5.1125V19.875C23.75 22.0125 22.0125 23.7375 19.8875 23.7375H5.1125C2.9875 23.75 1.25 22.0125 1.25 19.8875V5.1125C1.25 2.9875 2.9875 1.25 5.1125 1.25H19.8875ZM19.8875 0H5.1125C2.3 0 0 2.3 0 5.1125V19.875C0 22.7 2.3 25 5.1125 25H19.875C22.6875 25 24.9875 22.7 24.9875 19.8875V5.1125C25 2.3 22.7 0 19.8875 0Z" fill="white"/>
<path d="M12.475 4.13751C7.41252 4.13751 3.30002 7.42501 3.30002 11.4875C3.30002 15.1 6.56252 18.1125 10.8625 18.7125C10.9625 18.725 11.0625 18.7375 11.1625 18.75C12.625 19.05 11.3625 20.8875 11.8375 21.2625C12.3875 21.6875 16.5625 18.9 19.1 16.5625C19.4625 16.25 19.8 15.925 20.1 15.5625V15.55C20.175 15.475 20.225 15.4 20.275 15.3375C21.1375 14.2125 21.65 12.8875 21.65 11.475C21.65 7.42501 17.5375 4.13751 12.475 4.13751ZM9.48752 13.35C9.48752 13.6125 9.27502 13.825 9.01252 13.825H7.20002H7.18752H7.15002C6.88752 13.825 6.67502 13.6125 6.67502 13.35V9.80001C6.67502 9.53751 6.88752 9.32501 7.15002 9.32501H7.18752C7.45002 9.32501 7.66252 9.53751 7.66252 9.80001V12.825H9.00002C9.26252 12.825 9.47502 13.0375 9.47502 13.3V13.35H9.48752ZM10.8625 13.35C10.8625 13.6125 10.65 13.825 10.3875 13.825H10.35C10.0875 13.825 9.87502 13.6125 9.87502 13.35V9.80001C9.87502 9.53751 10.0875 9.32501 10.35 9.32501H10.3875C10.65 9.32501 10.8625 9.53751 10.8625 9.80001V13.35ZM15.2 13.35C15.2 13.475 15.15 13.6 15.0625 13.6875C15.0375 13.725 14.9875 13.75 14.95 13.775C14.8875 13.8125 14.8125 13.825 14.725 13.825H14.6875C14.625 13.825 14.5625 13.8125 14.5 13.7875C14.425 13.7625 14.3625 13.7125 14.3125 13.65C14.3 13.6375 14.2875 13.6125 14.275 13.6L12.5375 11.225V13.35C12.5375 13.6125 12.325 13.825 12.0625 13.825H12.0125C11.75 13.825 11.5375 13.6125 11.5375 13.35V9.80001C11.5375 9.53751 11.75 9.32501 12.0125 9.32501H12.05C12.225 9.32501 12.3875 9.42501 12.4625 9.56251L14.1875 11.8875V9.80001C14.1875 9.53751 14.4 9.32501 14.6625 9.32501H14.7C14.9625 9.32501 15.175 9.53751 15.175 9.80001V13.35H15.2ZM18.6125 9.85001C18.6125 10.1125 18.4 10.325 18.1375 10.325H16.8V11.0875H18.1375C18.4 11.0875 18.6125 11.3 18.6125 11.5625V11.6C18.6125 11.8625 18.4 12.075 18.1375 12.075H16.8V12.8375H18.1375C18.4 12.8375 18.6125 13.05 18.6125 13.3125V13.35C18.6125 13.6125 18.4 13.825 18.1375 13.825H16.325H16.3125H16.275C16.0125 13.825 15.8 13.6125 15.8 13.35V9.81251C15.8 9.55001 16.0125 9.33751 16.275 9.33751H16.3125H16.325H18.1375C18.4 9.33751 18.6125 9.55001 18.6125 9.81251V9.85001Z" fill="white"/>
</svg>
