<svg width="33" height="39" viewBox="0 0 33 39" fill="none" xmlns="http://www.w3.org/2000/svg">
<path d="M4.88124 28.26C3.96123 28.26 3.23723 28.568 2.70923 29.184C2.18123 29.8 1.91723 30.644 1.91723 31.716C1.91723 32.78 2.16123 33.624 2.64923 34.248C3.14523 34.864 3.88523 35.172 4.86923 35.172C5.24523 35.172 5.60124 35.14 5.93723 35.076C6.27324 35.012 6.60124 34.932 6.92123 34.836V35.772C6.60124 35.892 6.26924 35.98 5.92523 36.036C5.58923 36.092 5.18523 36.12 4.71324 36.12C3.84123 36.12 3.11323 35.94 2.52923 35.58C1.94523 35.22 1.50523 34.708 1.20923 34.044C0.921235 33.38 0.777235 32.6 0.777235 31.704C0.777235 30.84 0.933235 30.08 1.24523 29.424C1.56523 28.76 2.03323 28.244 2.64923 27.876C3.26523 27.5 4.01323 27.312 4.89323 27.312C5.79723 27.312 6.58523 27.48 7.25723 27.816L6.82523 28.728C6.56123 28.608 6.26523 28.5 5.93723 28.404C5.61724 28.308 5.26524 28.26 4.88124 28.26ZM7.95127 36V27.432H9.03127V35.04H12.7753V36H7.95127ZM20.6459 31.704C20.6459 32.592 20.4939 33.368 20.1899 34.032C19.8939 34.688 19.4539 35.2 18.8699 35.568C18.2859 35.936 17.5619 36.12 16.6979 36.12C15.8099 36.12 15.0699 35.936 14.4779 35.568C13.8939 35.2 13.4579 34.684 13.1699 34.02C12.8819 33.356 12.7379 32.58 12.7379 31.692C12.7379 30.812 12.8819 30.044 13.1699 29.388C13.4579 28.732 13.8939 28.22 14.4779 27.852C15.0699 27.484 15.8139 27.3 16.7099 27.3C17.5659 27.3 18.2859 27.484 18.8699 27.852C19.4539 28.212 19.8939 28.724 20.1899 29.388C20.4939 30.044 20.6459 30.816 20.6459 31.704ZM13.8779 31.704C13.8779 32.784 14.1059 33.636 14.5619 34.26C15.0179 34.876 15.7299 35.184 16.6979 35.184C17.6739 35.184 18.3859 34.876 18.8339 34.26C19.2819 33.636 19.5059 32.784 19.5059 31.704C19.5059 30.624 19.2819 29.78 18.8339 29.172C18.3859 28.556 17.6779 28.248 16.7099 28.248C15.7419 28.248 15.0259 28.556 14.5619 29.172C14.1059 29.78 13.8779 30.624 13.8779 31.704ZM26.5649 33.708C26.5649 34.468 26.2889 35.06 25.7369 35.484C25.1849 35.908 24.4409 36.12 23.5049 36.12C23.0249 36.12 22.5809 36.084 22.1729 36.012C21.7649 35.94 21.4249 35.84 21.1529 35.712V34.68C21.4409 34.808 21.7969 34.924 22.2209 35.028C22.6529 35.132 23.0969 35.184 23.5529 35.184C24.1929 35.184 24.6729 35.06 24.9929 34.812C25.3209 34.564 25.4849 34.228 25.4849 33.804C25.4849 33.524 25.4249 33.288 25.3049 33.096C25.1849 32.904 24.9769 32.728 24.6809 32.568C24.3929 32.4 23.9889 32.224 23.4689 32.04C22.7409 31.776 22.1889 31.452 21.8129 31.068C21.4449 30.684 21.2609 30.16 21.2609 29.496C21.2609 29.04 21.3769 28.652 21.6089 28.332C21.8409 28.004 22.1609 27.752 22.5689 27.576C22.9849 27.4 23.4609 27.312 23.9969 27.312C24.4689 27.312 24.9009 27.356 25.2929 27.444C25.6849 27.532 26.0409 27.648 26.3609 27.792L26.0249 28.716C25.7289 28.588 25.4049 28.48 25.0529 28.392C24.7089 28.304 24.3489 28.26 23.9729 28.26C23.4369 28.26 23.0329 28.376 22.7609 28.608C22.4889 28.832 22.3529 29.132 22.3529 29.508C22.3529 29.796 22.4129 30.036 22.5329 30.228C22.6529 30.42 22.8489 30.592 23.1209 30.744C23.3929 30.896 23.7609 31.06 24.2249 31.236C24.7289 31.42 25.1529 31.62 25.4969 31.836C25.8489 32.044 26.1129 32.296 26.2889 32.592C26.4729 32.888 26.5649 33.26 26.5649 33.708ZM32.2388 36H27.4508V27.432H32.2388V28.38H28.5308V31.056H32.0228V31.992H28.5308V35.052H32.2388V36Z" fill="white"/>
<rect x="6.24695" y="0.332764" width="31" height="2" transform="rotate(45 6.24695 0.332764)" fill="white"/>
<rect x="4.83276" y="22.2531" width="31" height="2" transform="rotate(-45 4.83276 22.2531)" fill="white"/>
</svg>
