<svg width="25" height="25" viewBox="0 0 25 25" fill="none" xmlns="http://www.w3.org/2000/svg">
<g clip-path="url(#clip0_64_173)">
<path d="M12.5044 22.1673C7.17437 22.1673 2.83269 17.8345 2.83269 12.4956C2.83269 7.15672 7.17437 2.83269 12.5044 2.83269C17.8345 2.83269 22.1761 7.16555 22.1761 12.5044C22.1761 17.8433 17.8345 22.1673 12.5044 22.1673ZM12.5044 0C5.59478 0 0 5.59478 0 12.5044C0 19.4052 5.59478 25.0088 12.5044 25.0088C19.414 25.0088 25.0088 19.414 25.0088 12.5044C25 5.59478 19.4052 0 12.5044 0Z" fill="white"/>
<path d="M12.5044 3.71509C7.65973 3.71509 3.71515 7.65967 3.71515 12.5044C3.71515 17.349 7.65973 21.2936 12.5044 21.2936C17.3491 21.2936 21.2937 17.349 21.2937 12.5044C21.2937 7.65967 17.3491 3.71509 12.5044 3.71509ZM13.3604 16.5372H10.5807C9.85705 16.5372 9.49524 16.1577 9.49524 15.39V9.42458C9.49524 8.66567 9.85705 8.27739 10.5807 8.27739H13.1839C15.0724 8.27739 15.9725 9.0716 15.9725 10.5982C15.9725 11.2424 15.7783 11.7454 15.3371 12.019C15.9372 12.3279 16.3343 13.078 16.3343 13.8722C16.3343 15.6988 15.3812 16.5372 13.3604 16.5372ZM13.2369 10.06H11.2337V11.3219H13.3869C14.0311 11.3219 14.2429 11.0748 14.2429 10.6512C14.2429 10.2188 13.9693 10.06 13.2369 10.06ZM13.3692 12.9897H11.2337V14.7546H13.3692C14.2164 14.7546 14.587 14.4811 14.587 13.8633C14.587 13.2721 14.2076 12.9897 13.3692 12.9897Z" fill="white"/>
</g>
<defs>
<clipPath id="clip0_64_173">
<rect width="25" height="25" fill="white"/>
</clipPath>
</defs>
</svg>
