<svg width="33" height="25" viewBox="0 0 33 25" fill="none" xmlns="http://www.w3.org/2000/svg">
<path d="M31.8098 0H16.1126C15.6048 0 15.1893 0.415512 15.1893 0.923361V15.4201C15.1893 15.928 15.6048 16.3435 16.1126 16.3435H31.8098C32.3176 16.3435 32.7331 15.928 32.7331 15.4201V0.923361C32.7331 0.415512 32.3176 0 31.8098 0Z" fill="white"/>
<path d="M7.45615 23.3033C6.68284 23.3033 6.05957 22.6801 6.05957 21.9067C6.05957 21.1334 6.68284 20.5102 7.45615 20.5102C8.22947 20.5102 8.85274 21.1334 8.85274 21.9067C8.85274 22.6685 8.22947 23.3033 7.45615 23.3033ZM7.45615 18.7904C5.73639 18.7904 4.35135 20.187 4.35135 21.8952C4.35135 23.615 5.74794 25 7.45615 25C9.17591 25 10.561 23.6034 10.561 21.8952C10.561 20.187 9.17591 18.7904 7.45615 18.7904Z" fill="white"/>
<path d="M25.8079 23.3033C25.0346 23.3033 24.4113 22.6801 24.4113 21.9067C24.4113 21.1334 25.0346 20.5102 25.8079 20.5102C26.5812 20.5102 27.2045 21.1334 27.2045 21.9067C27.2161 22.6685 26.5812 23.3033 25.8079 23.3033ZM25.8079 18.7904C24.0882 18.7904 22.7031 20.187 22.7031 21.8952C22.7031 23.615 24.0997 25 25.8079 25C27.5277 25 28.9127 23.6034 28.9127 21.8952C28.9243 20.187 27.5277 18.7904 25.8079 18.7904Z" fill="white"/>
<path d="M2.80471 11.2304C2.80471 11.0457 2.86242 10.8726 2.97784 10.7341L6.18652 6.78674C6.33657 6.60207 6.5674 6.49819 6.79824 6.49819H9.93767C10.3763 6.49819 10.7341 6.85599 10.7341 7.29459V11.7729C10.7341 12.2115 10.3763 12.5693 9.93767 12.5693H3.58957C3.15097 12.5693 2.79316 12.2115 2.79316 11.7729V11.2304H2.80471ZM12.7886 4.36292H5.78255C5.55171 4.36292 5.33241 4.46679 5.19391 4.63992L0.173132 10.6649C0.0577118 10.8034 0 10.9765 0 11.1612V16.4474V19.2059C0 19.633 0.346258 19.9793 0.773313 19.9793H3.12788C3.86657 18.3288 5.52863 17.163 7.46768 17.163C9.3952 17.163 11.0572 18.3172 11.8075 19.9793H13.5734V5.12469C13.5619 4.69763 13.2156 4.36292 12.7886 4.36292Z" fill="white"/>
<path d="M15.5702 17.7978C15.3278 17.7978 15.1431 17.994 15.1431 18.2364V19.5291C15.1431 19.7715 15.3393 19.9561 15.5702 19.9561H21.4797C21.8837 19.0443 22.5762 18.2941 23.4303 17.7978H15.5702Z" fill="white"/>
<path d="M32.2484 17.7978H28.2087C29.0628 18.2941 29.7438 19.0559 30.1593 19.9561H32.2599C32.5023 19.9561 32.687 19.7599 32.687 19.5291V18.2364C32.6754 17.994 32.4792 17.7978 32.2484 17.7978Z" fill="white"/>
</svg>
