<svg width="17" height="18" viewBox="0 0 17 18" fill="none" xmlns="http://www.w3.org/2000/svg">
<g clip-path="url(#clip0_4_44)">
<path d="M11.8397 7.73328C11.524 7.73328 11.2665 7.47578 11.2665 7.16013C11.2665 6.84449 11.524 6.58699 11.8397 6.58699C12.1553 6.58699 12.4128 6.84449 12.4128 7.16013C12.4128 7.47578 12.1553 7.73328 11.8397 7.73328ZM14.7718 4.62668H1.93843L0.567871 18H16.1424L14.7718 4.62668ZM4.87059 7.73328C4.55495 7.73328 4.29745 7.47578 4.29745 7.16013C4.29745 6.84449 4.55495 6.58699 4.87059 6.58699C5.18624 6.58699 5.44374 6.84449 5.44374 7.16013C5.44374 7.47578 5.18624 7.73328 4.87059 7.73328Z" fill="#333333"/>
<path d="M6.1913 1.8191C6.74783 1.26258 7.51202 0.922012 8.35927 0.922012C9.20653 0.922012 9.97072 1.26258 10.5272 1.8191C11.0838 2.37563 11.4243 3.13982 11.4243 3.98708H12.3464C12.338 1.78588 10.5522 0 8.35097 0C6.15807 0 4.37219 1.78588 4.37219 3.97877H5.2942C5.2942 3.13152 5.63477 2.37563 6.1913 1.8191Z" fill="#333333"/>
</g>
<defs>
<clipPath id="clip0_4_44">
<rect width="15.5745" height="18" fill="white" transform="translate(0.567871)"/>
</clipPath>
</defs>
</svg>
