<svg width="33" height="31" viewBox="0 0 33 31" fill="none" xmlns="http://www.w3.org/2000/svg">
<path d="M4.97939 28L2.15939 20.488H2.11139C2.13539 20.736 2.15539 21.072 2.17139 21.496C2.18739 21.912 2.19539 22.348 2.19539 22.804V28H1.19939V19.432H2.79539L5.43539 26.452H5.48339L8.17139 19.432H9.75539V28H8.68739V22.732C8.68739 22.316 8.69539 21.904 8.71139 21.496C8.73539 21.088 8.75539 20.756 8.77139 20.5H8.72339L5.86739 28H4.97939ZM16.0341 28H11.2461V19.432H16.0341V20.38H12.3261V23.056H15.8181V23.992H12.3261V27.052H16.0341V28ZM23.8661 28H22.6061L18.0221 20.884H17.9741C17.9901 21.164 18.0101 21.512 18.0341 21.928C18.0581 22.344 18.0701 22.772 18.0701 23.212V28H17.0741V19.432H18.3221L22.8941 26.524H22.9421C22.9341 26.396 22.9221 26.204 22.9061 25.948C22.8981 25.692 22.8861 25.412 22.8701 25.108C22.8621 24.804 22.8581 24.524 22.8581 24.268V19.432H23.8661V28ZM31.8673 24.976C31.8673 25.568 31.7473 26.104 31.5073 26.584C31.2673 27.056 30.8993 27.432 30.4033 27.712C29.9153 27.984 29.2913 28.12 28.5313 28.12C27.4673 28.12 26.6553 27.832 26.0953 27.256C25.5433 26.672 25.2673 25.904 25.2673 24.952V19.432H26.3473V24.988C26.3473 25.684 26.5313 26.224 26.8993 26.608C27.2753 26.992 27.8393 27.184 28.5913 27.184C29.3673 27.184 29.9273 26.98 30.2713 26.572C30.6233 26.156 30.7993 25.624 30.7993 24.976V19.432H31.8673V24.976Z" fill="black"/>
<rect x="1" width="31" height="2" fill="black"/>
<rect x="1" y="7" width="31" height="2" fill="black"/>
<rect x="1" y="14" width="31" height="2" fill="black"/>
</svg>
