<svg width="36" height="25" viewBox="0 0 36 25" fill="none" xmlns="http://www.w3.org/2000/svg">
<path d="M26.1301 1.29199C34.2438 1.29199 34.5668 3.38501 34.5668 9.6124V15.3876C34.5668 22.1318 32.6676 23.708 26.1301 23.708H10.7038C3.45572 23.708 2.26709 21.0078 2.26709 15.3876V9.6124C2.26709 3.69509 2.26709 1.29199 10.7038 1.29199H26.1301ZM26.1301 0H10.7038C1.38853 0 0.975098 3.11369 0.975098 9.6124V15.3876C0.975098 21.4729 2.56424 25 10.7038 25H26.1301C30.0319 25 32.2154 24.4186 33.7012 23.0103C35.2128 21.5633 35.8588 19.2765 35.8588 15.3876V9.6124C35.8588 2.77778 34.9803 0 26.1301 0Z" fill="white"/>
<path d="M15.1224 7.81653L23.8304 12.3385L15.1224 16.8863V7.81653Z" fill="white"/>
</svg>
