<svg width="70" height="70" viewBox="0 0 70 70" fill="none" xmlns="http://www.w3.org/2000/svg">
<circle cx="35" cy="35" r="35" fill="#E1C6DE"/>
<g clip-path="url(#clip0_417_492)">
<path d="M47.756 26.168H44.3944C44.5641 25.69 44.672 25.1657 44.672 24.626C44.672 22.0663 42.6057 20 40.046 20C38.4269 20 37.0237 20.8327 36.191 22.0817L35.42 23.1148L34.649 22.0663C33.8163 20.8327 32.4131 20 30.794 20C28.2343 20 26.168 22.0663 26.168 24.626C26.168 25.1657 26.2759 25.69 26.4456 26.168H23.084C21.3724 26.168 20.0154 27.5404 20.0154 29.252L20 46.214C20 47.9256 21.3724 49.298 23.084 49.298H47.756C49.4676 49.298 50.84 47.9256 50.84 46.214V29.252C50.84 27.5404 49.4676 26.168 47.756 26.168ZM40.046 23.084C40.8941 23.084 41.588 23.7779 41.588 24.626C41.588 25.4741 40.8941 26.168 40.046 26.168C39.1979 26.168 38.504 25.4741 38.504 24.626C38.504 23.7779 39.1979 23.084 40.046 23.084ZM30.794 23.084C31.6421 23.084 32.336 23.7779 32.336 24.626C32.336 25.4741 31.6421 26.168 30.794 26.168C29.9459 26.168 29.252 25.4741 29.252 24.626C29.252 23.7779 29.9459 23.084 30.794 23.084ZM47.756 46.214H23.084V43.13H47.756V46.214ZM47.756 38.504H23.084V29.252H30.9174L27.71 33.6159L30.208 35.42L33.878 30.4239L35.42 28.3268L36.962 30.4239L40.632 35.42L43.13 33.6159L39.9226 29.252H47.756V38.504Z" fill="white"/>
</g>
<defs>
<clipPath id="clip0_417_492">
<rect width="30.84" height="29.298" fill="white" transform="translate(20 20)"/>
</clipPath>
</defs>
</svg>
