<svg width="70" height="70" viewBox="0 0 70 70" fill="none" xmlns="http://www.w3.org/2000/svg">
<circle cx="35" cy="35" r="35" fill="#92C0D8"/>
<g clip-path="url(#clip0_417_511)">
<path d="M51.0127 23H34.2285C33.6855 23 33.2412 23.4443 33.2412 23.9873V39.488C33.2412 40.031 33.6855 40.4753 34.2285 40.4753H51.0127C51.5557 40.4753 52 40.031 52 39.488V23.9873C52 23.4443 51.5681 23 51.0127 23Z" fill="white"/>
<path d="M24.9725 47.9173C24.1457 47.9173 23.4792 47.2508 23.4792 46.424C23.4792 45.5971 24.1457 44.9307 24.9725 44.9307C25.7994 44.9307 26.4658 45.5971 26.4658 46.424C26.4782 47.2385 25.7994 47.9173 24.9725 47.9173ZM24.9725 43.0918C23.1337 43.0918 21.6527 44.5851 21.6527 46.4116C21.6527 48.2505 23.146 49.7314 24.9725 49.7314C26.8114 49.7314 28.2923 48.2381 28.2923 46.4116C28.3047 44.5851 26.8114 43.0918 24.9725 43.0918Z" fill="white"/>
<path d="M44.6075 47.9173C43.7807 47.9173 43.1142 47.2508 43.1142 46.424C43.1142 45.5971 43.7807 44.9307 44.6075 44.9307C45.4344 44.9307 46.1008 45.5971 46.1008 46.424C46.1008 47.2385 45.4344 47.9173 44.6075 47.9173ZM44.6075 43.0918C42.7687 43.0918 41.2877 44.5851 41.2877 46.4116C41.2877 48.2505 42.781 49.7314 44.6075 49.7314C46.4464 49.7314 47.9274 48.2381 47.9274 46.4116C47.9274 44.5851 46.4464 43.0918 44.6075 43.0918Z" fill="white"/>
<path d="M19.9989 35.0081C19.9989 34.8107 20.0606 34.6255 20.1841 34.4775L23.615 30.2567C23.7754 30.0593 24.0222 29.9358 24.2814 29.9358H27.6382C28.1072 29.9358 28.4774 30.3184 28.4774 30.7874V35.5758C28.4774 36.0448 28.0949 36.4274 27.6259 36.4274H20.8382C20.3692 36.4274 19.9866 36.0448 19.9866 35.5758V35.0081H19.9989ZM30.6865 27.665H23.183C22.9362 27.665 22.7017 27.7761 22.5536 27.9612L17.1851 34.3911C17.0617 34.5392 17 34.7243 17 34.9217V40.5741V43.5236C17 43.9803 17.3702 44.3505 17.8269 44.3505H20.3445C21.1343 42.5857 22.9115 41.3392 24.9848 41.3392C27.0458 41.3392 28.823 42.5734 29.6252 44.3505H31.5134V28.4796C31.5011 28.0229 31.1308 27.665 30.6865 27.665Z" fill="white"/>
<path d="M33.6485 42.0303C33.3893 42.0303 33.1918 42.2401 33.1918 42.4992V43.8815C33.1918 44.1406 33.4016 44.3381 33.6485 44.3381H39.9672C40.3992 43.3631 41.1396 42.561 42.0529 42.0303H33.6485Z" fill="white"/>
<path d="M51.4816 42.0303H47.1622C48.0754 42.561 48.8036 43.3755 49.2479 44.3381H51.494C51.7531 44.3381 51.9506 44.1283 51.9506 43.8815V42.4992C51.9506 42.2401 51.7408 42.0303 51.4816 42.0303Z" fill="white"/>
</g>
<defs>
<clipPath id="clip0_417_511">
<rect width="35" height="26.7437" fill="white" transform="translate(17 23)"/>
</clipPath>
</defs>
</svg>
