<svg width="70" height="70" viewBox="0 0 70 70" fill="none" xmlns="http://www.w3.org/2000/svg">
<circle cx="35" cy="35" r="35" fill="#F7D5D3"/>
<g clip-path="url(#clip0_417_455)">
<path d="M43.6 39.4199H42.08V42.4799H43.6C44.56 42.4799 45.34 41.7899 45.34 40.9499C45.34 40.0999 44.56 39.4199 43.6 39.4199Z" fill="white"/>
<path d="M43.6 44.17H42.08V46.4C42.08 46.83 41.73 47.17 41.31 47.17H40.92C40.49 47.17 40.15 46.82 40.15 46.4V38.49C40.15 38.06 40.5 37.72 40.92 37.72H43.6C45.63 37.72 47.28 39.17 47.28 40.95C47.28 42.73 45.63 44.17 43.6 44.17ZM43.25 30.97C37.17 30.97 32.24 35.9 32.24 41.98C32.24 48.06 37.17 52.99 43.25 52.99C49.33 52.99 54.26 48.06 54.26 41.98C54.26 35.91 49.33 30.97 43.25 30.97Z" fill="white"/>
<path d="M36.89 21.81C36.89 23.91 32.89 25.62 27.95 25.62C23 25.62 19 23.91 19 21.81C19 19.7 23 18 27.94 18C32.89 18 36.89 19.7 36.89 21.81Z" fill="white"/>
<path d="M19 28.2601C19 30.3601 23 32.0701 27.94 32.0701C32.88 32.0701 36.88 30.3701 36.88 28.2601V27.3101C36.88 27.0201 36.73 26.7501 36.49 26.5901C36.25 26.4301 35.94 26.4001 35.67 26.5201C35.67 26.5201 32.87 28.2501 27.93 28.2501C22.99 28.2501 20.19 26.5201 20.19 26.5201C19.94 26.4001 19.63 26.4301 19.39 26.5801C19.15 26.7501 19 27.0201 19 27.3101V28.2601Z" fill="white"/>
<path d="M30.83 34.7C30.1 35.93 29.56 37.27 29.23 38.69C28.81 38.72 28.38 38.73 27.94 38.73C23.01 38.72 19 37.02 19 34.91V33.97C19 33.68 19.14 33.41 19.39 33.24C19.63 33.08 19.94 33.05 20.21 33.17C20.21 33.17 23.01 34.9 27.95 34.9C29.01 34.9 29.97 34.82 30.83 34.7Z" fill="white"/>
<path d="M29.24 45.3399C28.82 45.3699 28.38 45.3799 27.94 45.3799C23.01 45.3799 19 43.6799 19 41.5799V40.6299C19 40.3399 19.14 40.0699 19.39 39.8999C19.63 39.7399 19.94 39.7099 20.21 39.8299C20.21 39.8299 23.01 41.5599 27.95 41.5599C28.26 41.5599 28.57 41.5499 28.86 41.5399C28.85 41.6899 28.85 41.8399 28.85 41.9899C28.84 43.1399 28.98 44.2599 29.24 45.3399Z" fill="white"/>
<path d="M32.46 51.5201C31.14 51.8601 29.6 52.0501 27.95 52.0501C23.01 52.0401 19 50.3301 19 48.2301V47.2801C19 46.9901 19.14 46.7201 19.39 46.5601C19.63 46.4001 19.94 46.3701 20.21 46.4901C20.21 46.4901 23.01 48.2201 27.95 48.2201C28.76 48.2201 29.52 48.1701 30.21 48.1001C30.79 49.3401 31.55 50.4901 32.46 51.5201Z" fill="white"/>
</g>
<defs>
<clipPath id="clip0_417_455">
<rect width="35.26" height="35" fill="white" transform="translate(19 18)"/>
</clipPath>
</defs>
</svg>
