<svg width="87" height="29" viewBox="0 0 87 29" fill="none" xmlns="http://www.w3.org/2000/svg">
<path d="M47.64 8.704C47.64 9.592 47.488 10.368 47.184 11.032C46.888 11.688 46.448 12.2 45.864 12.568C45.28 12.936 44.556 13.12 43.692 13.12C42.804 13.12 42.064 12.936 41.472 12.568C40.888 12.2 40.452 11.684 40.164 11.02C39.876 10.356 39.732 9.58 39.732 8.692C39.732 7.812 39.876 7.044 40.164 6.388C40.452 5.732 40.888 5.22 41.472 4.852C42.064 4.484 42.808 4.3 43.704 4.3C44.56 4.3 45.28 4.484 45.864 4.852C46.448 5.212 46.888 5.724 47.184 6.388C47.488 7.044 47.64 7.816 47.64 8.704ZM40.872 8.704C40.872 9.784 41.1 10.636 41.556 11.26C42.012 11.876 42.724 12.184 43.692 12.184C44.668 12.184 45.38 11.876 45.828 11.26C46.276 10.636 46.5 9.784 46.5 8.704C46.5 7.624 46.276 6.78 45.828 6.172C45.38 5.556 44.672 5.248 43.704 5.248C42.736 5.248 42.02 5.556 41.556 6.172C41.1 6.78 40.872 7.624 40.872 8.704ZM56.331 13H55.071L50.487 5.884H50.439C50.455 6.164 50.475 6.512 50.499 6.928C50.523 7.344 50.535 7.772 50.535 8.212V13H49.539V4.432H50.787L55.359 11.524H55.407C55.399 11.396 55.387 11.204 55.371 10.948C55.363 10.692 55.351 10.412 55.335 10.108C55.327 9.804 55.323 9.524 55.323 9.268V4.432H56.331V13ZM61.7734 13V4.432H62.8534V12.04H66.5974V13H61.7734ZM70.4783 13H67.3823V12.376L68.3903 12.148V5.296L67.3823 5.056V4.432H70.4783V5.056L69.4703 5.296V12.148L70.4783 12.376V13ZM78.9248 13H77.6648L73.0808 5.884H73.0328C73.0488 6.164 73.0688 6.512 73.0928 6.928C73.1168 7.344 73.1288 7.772 73.1288 8.212V13H72.1328V4.432H73.3808L77.9528 11.524H78.0008C77.9928 11.396 77.9808 11.204 77.9648 10.948C77.9568 10.692 77.9448 10.412 77.9288 10.108C77.9208 9.804 77.9168 9.524 77.9168 9.268V4.432H78.9248V13ZM86.0379 13H81.2499V4.432H86.0379V5.38H82.3299V8.056H85.8219V8.992H82.3299V12.052H86.0379V13ZM45.024 23.708C45.024 24.468 44.748 25.06 44.196 25.484C43.644 25.908 42.9 26.12 41.964 26.12C41.484 26.12 41.04 26.084 40.632 26.012C40.224 25.94 39.884 25.84 39.612 25.712V24.68C39.9 24.808 40.256 24.924 40.68 25.028C41.112 25.132 41.556 25.184 42.012 25.184C42.652 25.184 43.132 25.06 43.452 24.812C43.78 24.564 43.944 24.228 43.944 23.804C43.944 23.524 43.884 23.288 43.764 23.096C43.644 22.904 43.436 22.728 43.14 22.568C42.852 22.4 42.448 22.224 41.928 22.04C41.2 21.776 40.648 21.452 40.272 21.068C39.904 20.684 39.72 20.16 39.72 19.496C39.72 19.04 39.836 18.652 40.068 18.332C40.3 18.004 40.62 17.752 41.028 17.576C41.444 17.4 41.92 17.312 42.456 17.312C42.928 17.312 43.36 17.356 43.752 17.444C44.144 17.532 44.5 17.648 44.82 17.792L44.484 18.716C44.188 18.588 43.864 18.48 43.512 18.392C43.168 18.304 42.808 18.26 42.432 18.26C41.896 18.26 41.492 18.376 41.22 18.608C40.948 18.832 40.812 19.132 40.812 19.508C40.812 19.796 40.872 20.036 40.992 20.228C41.112 20.42 41.308 20.592 41.58 20.744C41.852 20.896 42.22 21.06 42.684 21.236C43.188 21.42 43.612 21.62 43.956 21.836C44.308 22.044 44.572 22.296 44.748 22.592C44.932 22.888 45.024 23.26 45.024 23.708ZM53.3019 26H52.2219V22.004H47.8299V26H46.7499V17.432H47.8299V21.056H52.2219V17.432H53.3019V26ZM63.1205 21.704C63.1205 22.592 62.9685 23.368 62.6645 24.032C62.3685 24.688 61.9285 25.2 61.3445 25.568C60.7605 25.936 60.0365 26.12 59.1725 26.12C58.2845 26.12 57.5445 25.936 56.9525 25.568C56.3685 25.2 55.9325 24.684 55.6445 24.02C55.3565 23.356 55.2125 22.58 55.2125 21.692C55.2125 20.812 55.3565 20.044 55.6445 19.388C55.9325 18.732 56.3685 18.22 56.9525 17.852C57.5445 17.484 58.2885 17.3 59.1845 17.3C60.0405 17.3 60.7605 17.484 61.3445 17.852C61.9285 18.212 62.3685 18.724 62.6645 19.388C62.9685 20.044 63.1205 20.816 63.1205 21.704ZM56.3525 21.704C56.3525 22.784 56.5805 23.636 57.0365 24.26C57.4925 24.876 58.2045 25.184 59.1725 25.184C60.1485 25.184 60.8605 24.876 61.3085 24.26C61.7565 23.636 61.9805 22.784 61.9805 21.704C61.9805 20.624 61.7565 19.78 61.3085 19.172C60.8605 18.556 60.1525 18.248 59.1845 18.248C58.2165 18.248 57.5005 18.556 57.0365 19.172C56.5805 19.78 56.3525 20.624 56.3525 21.704ZM67.2875 17.432C68.4075 17.432 69.2235 17.652 69.7355 18.092C70.2475 18.532 70.5035 19.152 70.5035 19.952C70.5035 20.424 70.3955 20.868 70.1795 21.284C69.9715 21.692 69.6155 22.024 69.1115 22.28C68.6155 22.536 67.9395 22.664 67.0835 22.664H66.0995V26H65.0195V17.432H67.2875ZM67.1915 18.356H66.0995V21.74H66.9635C67.7795 21.74 68.3875 21.608 68.7875 21.344C69.1875 21.08 69.3875 20.632 69.3875 20C69.3875 19.448 69.2115 19.036 68.8595 18.764C68.5075 18.492 67.9515 18.356 67.1915 18.356Z" fill="#333333"/>
<g clip-path="url(#clip0_4_80)">
<path d="M9.95135 25.3072H7.64465L7.78513 24.7527H10.0918L9.95135 25.3072Z" fill="#717071"/>
<path d="M15.2597 26.394C14.8161 26.978 14.1507 27.4216 13.5593 27.4216C12.2876 27.4216 11.5335 26.394 11.5335 25.3146C11.5335 24.5383 11.8736 23.8655 12.5538 23.3479C13.0787 22.9487 13.685 22.7713 14.0546 22.7713H14.062C14.476 22.7713 14.8087 22.9044 14.9714 23.0448C15.1045 23.1557 15.134 23.237 15.134 23.3479C15.134 23.5624 14.9122 23.7841 14.8013 23.7841C14.7422 23.7841 14.6904 23.7546 14.6091 23.6733C14.306 23.3923 13.9511 23.2592 13.5888 23.2592C12.9234 23.2592 12.3468 23.8137 12.3468 24.871C12.3468 26.2683 13.2931 26.7341 13.8698 26.7341C14.306 26.7341 14.6239 26.6158 15.0897 26.1796L15.2597 26.394Z" fill="#717071"/>
<path d="M17.7734 23.8507C18.0766 23.3405 18.5054 22.7713 18.9933 22.7713C19.3334 22.7713 19.5774 23.0448 19.5774 23.274C19.5774 23.4736 19.4443 23.6806 19.2521 23.7694C19.1338 23.8211 19.0525 23.8063 18.9933 23.7472C18.8455 23.6067 18.7198 23.5476 18.5571 23.5476C18.2983 23.5476 17.973 23.8359 17.7512 24.4052V26.2461C17.7512 26.9115 17.803 26.9706 18.5793 27.0298V27.2885H16.2652V27.0298C16.8862 26.9706 16.9602 26.9115 16.9602 26.2461V24.1612C16.9602 23.4958 16.9232 23.4588 16.3391 23.3849V23.1557C16.8345 23.0744 17.2781 22.9561 17.7586 22.7491V23.8507H17.7734Z" fill="#717071"/>
<path d="M24.0133 26.4531C23.3775 27.2368 22.6825 27.4217 22.372 27.4217C21.1299 27.4217 20.4054 26.4162 20.4054 25.2776C20.4054 24.59 20.6568 23.969 21.0708 23.518C21.4848 23.067 22.0245 22.7861 22.5421 22.7861H22.5494C23.3849 22.7861 24.0577 23.5402 24.0577 24.3165C24.0577 24.5161 24.0207 24.5974 23.8285 24.6418C23.6658 24.6714 22.4016 24.7749 21.1891 24.8118C21.1965 26.1796 21.9949 26.7489 22.6973 26.7489C23.1113 26.7489 23.481 26.5862 23.8581 26.2461L24.0133 26.4531ZM21.2482 24.3904C21.8101 24.3904 22.3794 24.383 22.9635 24.3608C23.1483 24.3608 23.2074 24.3091 23.2074 24.1612C23.2148 23.6363 22.8747 23.1557 22.3129 23.1557C21.8471 23.1483 21.3961 23.5698 21.2482 24.3904Z" fill="#717071"/>
<path d="M31.9167 23.1557C31.414 23.2296 31.3253 23.3479 31.1183 23.9024C30.8151 24.7083 30.3642 26.0465 29.9132 27.4068H29.6248C29.2182 26.32 28.8116 25.3293 28.3975 24.2721C28.0131 25.2924 27.5991 26.2905 27.1998 27.4068H26.9189C26.5492 26.2091 26.1722 25.0188 25.7508 23.8137C25.5659 23.2888 25.4846 23.2223 25.004 23.1557V22.897H27.0889V23.1557C26.4827 23.2444 26.4383 23.3036 26.5788 23.7694C26.8228 24.5383 27.0741 25.3293 27.3255 26.1056H27.3477C27.7174 25.1371 28.0944 24.1094 28.5158 22.9413H28.7746C29.1443 23.9912 29.5583 25.0558 29.9797 26.1426H30.0019C30.2237 25.4476 30.5046 24.5604 30.6969 23.8137C30.8299 23.2888 30.756 23.237 30.1128 23.1483V22.8896H31.9241V23.1557H31.9167Z" fill="#717071"/>
<path d="M1.13116 28.1831V27.9318C1.33818 27.8726 1.47865 27.8135 1.54519 27.7469C1.61173 27.6804 1.66348 27.5843 1.68566 27.4586C1.70784 27.3329 1.71523 27.1407 1.71523 26.8893V22.3868C1.71523 22.1502 1.70784 21.9728 1.69305 21.8619C1.67827 21.751 1.64869 21.6697 1.61173 21.6105C1.57476 21.5514 1.52301 21.4996 1.45647 21.4627C1.38993 21.4257 1.28642 21.3887 1.13116 21.337V21.0856H3.87407C4.40638 21.0856 4.83519 21.1447 5.1531 21.263C5.47841 21.3813 5.71499 21.5588 5.87025 21.788C6.02551 22.0172 6.10684 22.3129 6.10684 22.6825C6.10684 22.9857 6.04769 23.2444 5.93679 23.4662C5.82589 23.688 5.67803 23.8729 5.50059 24.0207C5.32315 24.1686 5.08657 24.3017 4.80562 24.4274V24.4717C5.264 24.6122 5.60409 24.834 5.84068 25.1297C6.07726 25.4255 6.18816 25.7803 6.18816 26.187C6.18816 26.6601 6.08466 27.0446 5.88504 27.3403C5.68542 27.636 5.39708 27.8578 5.03481 27.9909C4.67254 28.124 4.22895 28.1905 3.71142 28.1905H1.13116V28.1831ZM3.53398 24.2647C4.04411 24.2647 4.42856 24.139 4.70212 23.8803C4.96827 23.6215 5.10875 23.2518 5.10875 22.7713C5.10875 22.5347 5.07178 22.3351 4.99785 22.1724C4.92391 22.0172 4.82041 21.8915 4.68733 21.7954C4.55425 21.6992 4.39899 21.6327 4.22155 21.5957C4.04411 21.5588 3.8445 21.5366 3.63748 21.5366C3.5118 21.5366 3.34175 21.5366 3.13474 21.544C2.92773 21.5514 2.77247 21.5588 2.66897 21.5662V24.2647H3.53398ZM2.65418 27.6878C2.89816 27.71 3.17171 27.7248 3.47483 27.7248C3.91104 27.7248 4.25113 27.6656 4.4951 27.5547C4.73908 27.4438 4.91652 27.2738 5.02003 27.0446C5.13093 26.8228 5.18268 26.5418 5.18268 26.2017C5.18268 25.8617 5.12353 25.5881 5.00524 25.3663C4.88695 25.1445 4.70212 24.9819 4.45814 24.8784C4.21416 24.7675 3.86668 24.7157 3.43787 24.7157H2.65418V27.6878Z" fill="#717071"/>
<path d="M25.3293 3.43049C25.285 3.45267 25.248 3.48225 25.2036 3.48964C24.7157 3.6375 24.2351 3.73362 23.7767 3.94063C23.6215 4.00717 23.4736 4.08849 23.3257 4.192C22.9265 4.45816 22.5642 4.78346 22.2241 5.13095C22.1133 5.24184 22.0097 5.36014 21.8988 5.47843C21.7732 5.6189 21.6475 5.76677 21.5218 5.91463L21.1595 6.41738L20.6494 7.09756L20.1984 7.74077L19.6661 8.55403L19.1338 9.33772L18.7937 9.89961L18.1726 10.8312L17.7512 11.4744C16.4944 13.3301 15.304 14.6757 14.1803 15.5259C13.3227 16.1691 12.3024 16.694 11.1195 17.1007C10.9494 17.1598 10.7794 17.2116 10.6019 17.2633C10.1066 17.4038 9.62602 17.5886 9.10849 17.6478C8.36916 17.7291 7.64462 17.7291 6.91268 17.6773C6.76482 17.6625 6.61695 17.6551 6.46909 17.633C6.29904 17.6108 6.13639 17.5886 5.96635 17.5516C5.78151 17.5073 5.61147 17.4555 5.44882 17.4038C5.27138 17.3446 5.09394 17.2781 4.93129 17.1968C4.76124 17.1154 4.60598 17.0119 4.4729 16.8715C4.00713 16.3613 3.89623 15.5333 4.33243 14.9418C4.64295 14.513 5.21962 14.3134 5.70019 14.5352C5.84066 14.6017 5.95895 14.72 6.02549 14.8679C6.09203 15.0084 6.10682 15.1784 6.04767 15.3263C5.95156 15.5555 5.73715 15.6885 5.54493 15.8068C5.48578 15.866 5.4636 15.9547 5.4636 16.0878C5.4636 16.2726 5.52275 16.4648 5.63365 16.6497C5.69279 16.7606 5.7963 16.8715 5.94417 16.9898C6.06246 17.0859 6.2399 17.1672 6.46169 17.2411C6.64653 17.3077 6.83875 17.3594 7.02358 17.3964C7.98471 17.596 8.99019 17.4334 9.89217 17.0637C10.0326 17.0045 10.1657 16.9454 10.3062 16.8715C10.5797 16.731 10.8607 16.5609 11.1416 16.3687C11.4226 16.1617 11.7109 15.9251 11.9993 15.6516C12.2876 15.378 12.6425 15.001 13.0491 14.513C13.4631 14.0251 13.9585 13.3597 14.5425 12.5168L15.1636 11.6444L15.5406 11.0899L16.4944 9.6852C17.1302 8.70929 17.6773 7.97736 18.1209 7.4894C18.5497 6.98666 18.9489 6.54306 19.326 6.166C19.4517 6.04032 19.57 5.92203 19.6883 5.81113C20.7677 4.75389 22.165 4.07371 23.5993 3.62272C23.7989 3.56357 23.9985 3.51921 24.1982 3.48964C24.3978 3.45267 24.6048 3.43049 24.8118 3.4231C24.9966 3.41571 25.1667 3.41571 25.3293 3.43049Z" fill="#B28146"/>
<path d="M24.0133 3.37874C23.9542 3.40831 23.895 3.4231 23.8285 3.43049C22.8082 3.54879 21.8101 3.7558 20.8712 4.14764C20.642 4.24375 20.4202 4.34726 20.2058 4.45816C19.9914 4.56906 19.777 4.70214 19.57 4.83522C19.2816 5.02744 19.0081 5.24924 18.7493 5.47843C18.2022 6.01814 17.6921 6.58742 17.2041 7.17888C16.7162 7.77034 16.2504 8.38399 15.7994 8.99763C14.5499 10.7203 13.367 12.4059 11.9845 14.1212C11.4595 14.7792 10.8829 15.3189 10.2175 15.7847C9.88478 16.0212 9.54469 16.2356 9.18981 16.4279C8.13257 17.0119 6.99401 17.4334 5.78891 17.633C5.41185 17.6995 5.05697 17.6995 4.68731 17.7069C4.32504 17.7143 3.96277 17.6995 3.5931 17.6699C3.44524 17.6551 3.29737 17.6478 3.14951 17.6256C2.97946 17.6034 2.81681 17.5812 2.64677 17.5442C2.46193 17.4999 2.29189 17.4481 2.12924 17.3964C1.9518 17.3372 1.77436 17.2707 1.61171 17.1894C1.44166 17.108 1.2864 17.0045 1.15332 16.8641C0.687548 16.3539 0.576649 15.5259 1.01285 14.9344C1.32337 14.5056 1.90005 14.306 2.38061 14.5278C2.52108 14.5943 2.63937 14.7126 2.70591 14.8605C2.77245 15.001 2.78724 15.171 2.72809 15.3189C2.63198 15.5481 2.41757 15.6811 2.22535 15.7994C2.1662 15.8586 2.14402 15.9473 2.14402 16.0804C2.14402 16.2652 2.20317 16.4574 2.31407 16.6423C2.37321 16.7532 2.46933 16.8641 2.62459 16.9824C2.74288 17.0785 2.92032 17.1598 3.14211 17.2337C3.32695 17.3003 3.51917 17.352 3.7114 17.389C3.94798 17.4407 4.19196 17.4629 4.43594 17.4703C4.77603 17.4777 5.11612 17.4555 5.44142 17.3964C6.8905 17.1228 8.05125 16.2209 9.04934 15.1414C9.24896 14.927 9.44118 14.7052 9.62601 14.476C9.85521 14.2099 10.0696 13.9437 10.2766 13.6702C10.3875 13.5371 10.4762 13.3966 10.5724 13.2562C11.6444 11.7257 12.5094 10.2841 13.5888 8.87933C14.0472 8.28048 14.5278 7.7038 15.0453 7.1567C15.5628 6.6096 16.1025 6.09207 16.694 5.6189C16.9601 5.4045 17.2263 5.20488 17.5072 5.01265C17.7808 4.82043 18.0617 4.65038 18.3501 4.48773C18.6014 4.34726 18.8676 4.22157 19.1338 4.11067C19.3999 3.99978 19.6735 3.90366 19.947 3.81494C21.0634 3.47485 22.2315 3.34177 23.3997 3.33438C23.6289 3.35656 23.8359 3.36395 24.0133 3.37874Z" fill="#89C1BE"/>
<path d="M29.159 3.22347C29.0259 2.8612 28.8189 2.52111 28.5454 2.1958C27.9983 1.55259 27.1924 1.03506 26.1278 0.643215C25.3663 0.399237 24.7083 0.229191 24.1538 0.133079C23.5993 0.0443596 22.9191 0 22.1206 0C21.8323 0 21.4996 0.0147865 21.1151 0.0369664C20.6715 0.0665394 20.2427 0.0887193 19.7918 0.162652C18.4831 0.369664 17.2485 0.635821 16.0212 1.04245C15.7476 1.13117 15.4815 1.21989 15.2301 1.30861C14.4612 1.58216 13.7588 1.88528 13.1156 2.21798C11.637 3.01645 10.4762 3.85929 9.6334 4.73909C8.79056 5.61889 8.20649 6.58741 7.8738 7.62986C7.74811 8.03649 7.68896 8.42094 7.68896 8.76842C7.68896 9.54471 7.95512 10.2027 8.48744 10.735C8.68706 10.9346 8.90886 11.0973 9.15283 11.223C9.23416 11.2673 9.31549 11.3043 9.4042 11.3339C10.2618 11.637 11.2008 11.5631 12.0732 11.3709C12.1841 11.3487 12.2876 11.3191 12.3985 11.2895C12.4946 11.2673 12.5833 11.2452 12.6794 11.2156C12.7681 11.186 12.8643 11.1638 12.953 11.1343C13.0417 11.1047 13.1304 11.0751 13.2265 11.0382C13.3005 11.0086 13.3818 10.979 13.4557 10.942C13.5444 10.8311 13.6405 10.7276 13.7219 10.6167C13.7736 10.5502 13.8254 10.4763 13.8697 10.4023C13.6701 10.4837 13.4631 10.5502 13.2561 10.602C13.1748 10.6241 13.0861 10.6389 13.0047 10.6537C12.5759 10.735 12.1397 10.7498 11.7109 10.6981C11.6222 10.6833 11.5335 10.6685 11.4447 10.6463C11.1786 10.5872 10.9198 10.4984 10.6758 10.3802C10.528 10.3062 10.3875 10.2175 10.2692 10.114C10.0252 9.91438 9.82562 9.66301 9.68515 9.35988C9.58164 9.09372 9.52989 8.82017 9.52989 8.53184C9.52989 8.13999 9.64079 7.63725 9.85519 7.00882C10.0696 6.38039 10.491 5.69282 11.1047 4.93131C11.7183 4.1772 12.502 3.47484 13.4483 2.83902C13.7293 2.64679 14.0472 2.43978 14.3799 2.25495C14.7126 2.07012 15.0601 1.89268 15.4149 1.73003C17.2411 0.938945 19.2151 0.45099 21.2187 0.443596C21.5366 0.436203 21.8767 0.42881 22.2463 0.42881C23.067 0.42881 23.7324 0.487956 24.2351 0.613642C24.7379 0.739327 25.2406 0.909372 25.7285 1.13856C26.941 1.77439 27.5473 2.77987 27.5473 4.14763C27.5473 4.48032 27.5029 4.80563 27.4216 5.12354C27.1481 6.17338 26.4531 7.06797 25.6029 7.71118C25.3145 7.92559 25.0188 8.11042 24.7083 8.2435C24.553 8.31004 24.4052 8.37658 24.2573 8.43572C23.5623 8.72406 22.8452 8.95325 22.0911 9.01979C21.6253 9.05676 21.1669 9.0124 20.7011 9.04197C20.6346 9.04936 20.5459 9.08633 20.5311 9.13069C20.5015 9.19723 20.5976 9.31552 20.642 9.31552C21.3296 9.3377 22.0393 9.40424 22.6308 9.76651C22.7638 9.84044 22.8821 9.91438 23.0004 10.0031C23.3479 10.2619 23.6289 10.5798 23.8359 10.9568C24.1168 11.4596 24.2499 11.9993 24.2499 12.576C24.2499 13.234 24.0946 13.8846 23.7841 14.5204C23.7102 14.683 23.6215 14.8383 23.5254 14.9862C23.4292 15.1414 23.3257 15.2893 23.2148 15.4372C23.0965 15.585 22.9783 15.7329 22.8526 15.8734C22.7269 16.0138 22.6012 16.1543 22.4607 16.28C22.1872 16.5387 21.8988 16.7827 21.5809 16.9823C21.4552 17.0637 21.3222 17.1376 21.1891 17.2041C20.0653 17.7586 18.7419 17.973 17.522 17.6403C17.2706 17.559 17.0193 17.4703 16.7827 17.3446C16.4204 17.145 16.0729 16.8641 15.9325 16.45C15.8807 16.3022 15.8659 16.1395 15.755 16.0212C15.6885 15.9473 15.5702 15.9177 15.4815 15.9769C15.4075 16.0212 15.378 16.1099 15.3928 16.1839C15.4445 16.487 15.6811 16.7014 15.8807 16.9306C16.0212 17.0932 16.169 17.2337 16.3317 17.3668C16.4944 17.4925 16.6718 17.6108 16.8566 17.7069C17.352 17.9804 17.8843 18.1653 18.4536 18.2318C19.1264 18.3131 19.7991 18.3501 20.4645 18.3131C20.6863 18.2983 20.9081 18.2836 21.1225 18.254C22.8821 18.0396 24.5456 17.0637 25.5289 15.5702C25.6103 15.4519 25.6842 15.3263 25.7507 15.2006C25.8173 15.0749 25.8764 14.9492 25.9282 14.8235C26.1352 14.3208 26.2387 13.8106 26.2387 13.3005C26.2387 11.9623 25.625 10.9125 24.3904 10.1584L23.4366 9.63343C23.4366 9.63343 23.1631 9.52993 22.8821 9.43382C22.6012 9.3377 22.3276 9.2342 22.3276 9.2342L23.0965 9.13808C23.3331 9.1159 23.5697 9.08633 23.7915 9.05676C24.1612 9.005 24.5087 8.94586 24.834 8.87193C25.1593 8.79799 25.4624 8.71667 25.7359 8.62055C26.8671 8.25089 27.8874 7.52635 28.5602 6.55044C28.8263 6.21774 29.0259 5.86286 29.1516 5.4932C29.2847 5.13093 29.3513 4.74648 29.3513 4.34724C29.366 3.96279 29.2995 3.58574 29.159 3.22347Z" fill="#B28146"/>
</g>
<defs>
<clipPath id="clip0_4_80">
<rect width="32.5304" height="28.8338" fill="white"/>
</clipPath>
</defs>
</svg>
