<svg width="148" height="14" viewBox="0 0 148 14" fill="none" xmlns="http://www.w3.org/2000/svg">
<path d="M5.77213 0.399999C6.54013 0.399999 7.20013 0.501999 7.75213 0.705999C8.30413 0.897999 8.84413 1.198 9.37213 1.606L8.49013 2.632C7.75813 2.02 6.88813 1.714 5.88013 1.714C4.76413 1.714 3.85213 2.122 3.14413 2.938C2.44813 3.742 2.10013 5.026 2.10013 6.79C2.10013 8.542 2.44213 9.826 3.12613 10.642C3.81013 11.458 4.72213 11.866 5.86213 11.866C6.48613 11.866 7.02013 11.776 7.46413 11.596C7.90813 11.416 8.33413 11.164 8.74213 10.84L9.55213 11.848C8.62813 12.748 7.39213 13.198 5.84413 13.198C4.82413 13.198 3.90613 12.952 3.09013 12.46C2.27413 11.956 1.63213 11.224 1.16413 10.264C0.696125 9.304 0.462125 8.146 0.462125 6.79C0.462125 5.446 0.696125 4.294 1.16413 3.334C1.64413 2.362 2.28613 1.63 3.09013 1.138C3.90613 0.645999 4.80013 0.399999 5.77213 0.399999ZM29.0751 6.808C29.0751 8.74 28.6791 10.288 27.8871 11.452C27.1071 12.616 25.9851 13.198 24.5211 13.198C23.0451 13.198 21.9171 12.628 21.1371 11.488C20.3571 10.348 19.9671 8.794 19.9671 6.826C19.9671 5.566 20.1411 4.45 20.4891 3.478C20.8371 2.506 21.3531 1.75 22.0371 1.21C22.7211 0.669999 23.5491 0.399999 24.5211 0.399999C25.9851 0.399999 27.1071 0.981999 27.8871 2.146C28.6791 3.298 29.0751 4.852 29.0751 6.808ZM27.4551 6.808C27.4551 5.116 27.2211 3.844 26.7531 2.992C26.2851 2.14 25.5411 1.714 24.5211 1.714C23.5011 1.714 22.7571 2.146 22.2891 3.01C21.8211 3.862 21.5871 5.134 21.5871 6.826C21.5871 8.506 21.8211 9.772 22.2891 10.624C22.7691 11.464 23.5131 11.884 24.5211 11.884C25.5411 11.884 26.2851 11.464 26.7531 10.624C27.2211 9.772 27.4551 8.5 27.4551 6.808ZM41.6501 2.11C41.6501 2.194 41.6861 2.716 41.7581 3.676C41.8301 4.636 41.8661 5.674 41.8661 6.79V13H40.4081V0.598H42.5321L46.9781 11.542L46.9421 10.894C46.8221 9.418 46.7621 8.056 46.7621 6.808V0.598H48.2201V13H46.0241L41.6501 2.11ZM64.863 13H63.297V1.948H59.427V0.598H68.769L68.607 1.948H64.863V13ZM82.316 6.07H86.924V7.348H82.316V11.74H87.968V13H80.768V0.598H87.806L87.626 1.894H82.316V6.07ZM101.029 2.11C101.029 2.194 101.065 2.716 101.137 3.676C101.209 4.636 101.245 5.674 101.245 6.79V13H99.787V0.598H101.911L106.357 11.542L106.321 10.894C106.201 9.418 106.141 8.056 106.141 6.808V0.598H107.599V13H105.403L101.029 2.11ZM124.242 13H122.676V1.948H118.806V0.598H128.148L127.986 1.948H124.242V13ZM147.545 9.562C147.545 10.282 147.365 10.918 147.005 11.47C146.645 12.01 146.123 12.436 145.439 12.748C144.755 13.048 143.945 13.198 143.009 13.198C142.109 13.198 141.287 13.066 140.543 12.802C139.811 12.526 139.181 12.136 138.653 11.632L139.589 10.57C140.045 11.002 140.549 11.332 141.101 11.56C141.665 11.788 142.307 11.902 143.027 11.902C143.843 11.902 144.527 11.704 145.079 11.308C145.631 10.912 145.907 10.342 145.907 9.598C145.907 9.178 145.829 8.83 145.673 8.554C145.517 8.278 145.241 8.032 144.845 7.816C144.461 7.6 143.915 7.39 143.207 7.186C141.863 6.79 140.861 6.328 140.201 5.8C139.541 5.26 139.211 4.528 139.211 3.604C139.211 2.992 139.379 2.44 139.715 1.948C140.051 1.456 140.525 1.078 141.137 0.813999C141.749 0.537999 142.445 0.399999 143.225 0.399999C144.041 0.399999 144.767 0.519999 145.403 0.76C146.051 1 146.645 1.354 147.185 1.822L146.249 2.83C145.397 2.086 144.407 1.714 143.279 1.714C142.559 1.714 141.965 1.87 141.497 2.182C141.029 2.494 140.795 2.95 140.795 3.55C140.795 3.91 140.891 4.216 141.083 4.468C141.275 4.72 141.593 4.954 142.037 5.17C142.481 5.386 143.105 5.608 143.909 5.836C145.073 6.172 145.967 6.61 146.591 7.15C147.227 7.69 147.545 8.494 147.545 9.562Z" fill="white"/>
</svg>
