<svg width="49" height="14" viewBox="0 0 49 14" fill="none" xmlns="http://www.w3.org/2000/svg">
<path d="M8.97655 9.562C8.97655 10.282 8.79655 10.918 8.43655 11.47C8.07655 12.01 7.55455 12.436 6.87055 12.748C6.18655 13.048 5.37655 13.198 4.44055 13.198C3.54055 13.198 2.71855 13.066 1.97455 12.802C1.24255 12.526 0.612547 12.136 0.0845469 11.632L1.02055 10.57C1.47655 11.002 1.98055 11.332 2.53255 11.56C3.09655 11.788 3.73855 11.902 4.45855 11.902C5.27455 11.902 5.95855 11.704 6.51055 11.308C7.06255 10.912 7.33855 10.342 7.33855 9.598C7.33855 9.178 7.26055 8.83 7.10455 8.554C6.94855 8.278 6.67255 8.032 6.27655 7.816C5.89255 7.6 5.34655 7.39 4.63855 7.186C3.29455 6.79 2.29255 6.328 1.63255 5.8C0.972547 5.26 0.642547 4.528 0.642547 3.604C0.642547 2.992 0.810547 2.44 1.14655 1.948C1.48255 1.456 1.95655 1.078 2.56855 0.813999C3.18055 0.537999 3.87655 0.399999 4.65655 0.399999C5.47255 0.399999 6.19855 0.519999 6.83455 0.76C7.48255 1 8.07655 1.354 8.61655 1.822L7.68055 2.83C6.82855 2.086 5.83855 1.714 4.71055 1.714C3.99055 1.714 3.39655 1.87 2.92855 2.182C2.46055 2.494 2.22655 2.95 2.22655 3.55C2.22655 3.91 2.32255 4.216 2.51455 4.468C2.70655 4.72 3.02455 4.954 3.46855 5.17C3.91255 5.386 4.53655 5.608 5.34055 5.836C6.50455 6.172 7.39855 6.61 8.02255 7.15C8.65855 7.69 8.97655 8.494 8.97655 9.562ZM21.8395 2.11C21.8395 2.194 21.8755 2.716 21.9475 3.676C22.0195 4.636 22.0555 5.674 22.0555 6.79V13H20.5975V0.598H22.7215L27.1675 11.542L27.1315 10.894C27.0115 9.418 26.9515 8.056 26.9515 6.808V0.598H28.4095V13H26.2135L21.8395 2.11ZM48.5625 9.562C48.5625 10.282 48.3825 10.918 48.0225 11.47C47.6625 12.01 47.1405 12.436 46.4565 12.748C45.7725 13.048 44.9625 13.198 44.0265 13.198C43.1265 13.198 42.3045 13.066 41.5605 12.802C40.8285 12.526 40.1985 12.136 39.6705 11.632L40.6065 10.57C41.0625 11.002 41.5665 11.332 42.1185 11.56C42.6825 11.788 43.3245 11.902 44.0445 11.902C44.8605 11.902 45.5445 11.704 46.0965 11.308C46.6485 10.912 46.9245 10.342 46.9245 9.598C46.9245 9.178 46.8465 8.83 46.6905 8.554C46.5345 8.278 46.2585 8.032 45.8625 7.816C45.4785 7.6 44.9325 7.39 44.2245 7.186C42.8805 6.79 41.8785 6.328 41.2185 5.8C40.5585 5.26 40.2285 4.528 40.2285 3.604C40.2285 2.992 40.3965 2.44 40.7325 1.948C41.0685 1.456 41.5425 1.078 42.1545 0.813999C42.7665 0.537999 43.4625 0.399999 44.2425 0.399999C45.0585 0.399999 45.7845 0.519999 46.4205 0.76C47.0685 1 47.6625 1.354 48.2025 1.822L47.2665 2.83C46.4145 2.086 45.4245 1.714 44.2965 1.714C43.5765 1.714 42.9825 1.87 42.5145 2.182C42.0465 2.494 41.8125 2.95 41.8125 3.55C41.8125 3.91 41.9085 4.216 42.1005 4.468C42.2925 4.72 42.6105 4.954 43.0545 5.17C43.4985 5.386 44.1225 5.608 44.9265 5.836C46.0905 6.172 46.9845 6.61 47.6085 7.15C48.2445 7.69 48.5625 8.494 48.5625 9.562Z" fill="white"/>
</svg>
