<svg width="287" height="35" viewBox="0 0 287 35" fill="none" xmlns="http://www.w3.org/2000/svg">
<path d="M23.9323 24.832C23.9323 26.752 23.4523 28.448 22.4923 29.92C21.5323 31.36 20.1403 32.496 18.3163 33.328C16.4923 34.128 14.3323 34.528 11.8363 34.528C9.43625 34.528 7.24425 34.176 5.26025 33.472C3.30825 32.736 1.62825 31.696 0.22025 30.352L2.71625 27.52C3.93225 28.672 5.27625 29.552 6.74825 30.16C8.25225 30.768 9.96425 31.072 11.8843 31.072C14.0603 31.072 15.8843 30.544 17.3563 29.488C18.8283 28.432 19.5643 26.912 19.5643 24.928C19.5643 23.808 19.3563 22.88 18.9403 22.144C18.5243 21.408 17.7883 20.752 16.7323 20.176C15.7083 19.6 14.2523 19.04 12.3643 18.496C8.78025 17.44 6.10825 16.208 4.34825 14.8C2.58825 13.36 1.70825 11.408 1.70825 8.944C1.70825 7.312 2.15625 5.84 3.05225 4.528C3.94825 3.216 5.21225 2.208 6.84425 1.504C8.47625 0.767998 10.3323 0.399998 12.4123 0.399998C14.5883 0.399998 16.5243 0.719998 18.2203 1.36C19.9483 2 21.5323 2.944 22.9723 4.192L20.4763 6.88C18.2043 4.896 15.5643 3.904 12.5563 3.904C10.6363 3.904 9.05225 4.32 7.80425 5.152C6.55625 5.984 5.93225 7.2 5.93225 8.8C5.93225 9.76 6.18825 10.576 6.70025 11.248C7.21225 11.92 8.06025 12.544 9.24425 13.12C10.4283 13.696 12.0923 14.288 14.2363 14.896C17.3403 15.792 19.7243 16.96 21.3883 18.4C23.0843 19.84 23.9323 21.984 23.9323 24.832ZM61.1135 15.52H73.4015V18.928H61.1135V30.64H76.1855V34H56.9855V0.927999H75.7535L75.2735 4.384H61.1135V15.52ZM111.447 25.552L108.807 34H104.679L115.479 0.927999H120.759L131.511 34H127.191L124.551 25.552H111.447ZM123.447 22.096L118.023 4.48L112.551 22.096H123.447ZM182.276 10.24C182.276 12.608 181.54 14.576 180.068 16.144C178.596 17.68 176.644 18.752 174.212 19.36L184.052 34H179.06L169.988 19.84H165.524V34H161.396V0.927999H169.844C173.94 0.927999 177.028 1.712 179.108 3.28C181.22 4.848 182.276 7.168 182.276 10.24ZM177.86 10.24C177.86 8.128 177.252 6.608 176.036 5.68C174.82 4.752 172.916 4.288 170.324 4.288H165.524V16.576H170.372C172.836 16.576 174.692 16.08 175.94 15.088C177.22 14.064 177.86 12.448 177.86 10.24ZM226.465 0.399998C228.513 0.399998 230.273 0.671998 231.745 1.216C233.217 1.728 234.657 2.528 236.065 3.616L233.713 6.352C231.761 4.72 229.441 3.904 226.753 3.904C223.777 3.904 221.345 4.992 219.457 7.168C217.601 9.312 216.673 12.736 216.673 17.44C216.673 22.112 217.585 25.536 219.409 27.712C221.233 29.888 223.665 30.976 226.705 30.976C228.369 30.976 229.793 30.736 230.977 30.256C232.161 29.776 233.297 29.104 234.385 28.24L236.545 30.928C234.081 33.328 230.785 34.528 226.657 34.528C223.937 34.528 221.489 33.872 219.313 32.56C217.137 31.216 215.425 29.264 214.177 26.704C212.929 24.144 212.305 21.056 212.305 17.44C212.305 13.856 212.929 10.784 214.177 8.224C215.457 5.632 217.169 3.68 219.313 2.368C221.489 1.056 223.873 0.399998 226.465 0.399998ZM282.703 18.304H270.223V34H266.047V0.927999H270.223V14.896H282.703V0.927999H286.879V34H282.703V18.304Z" fill="white"/>
</svg>
