<svg width="170" height="78" viewBox="0 0 170 78" fill="none" xmlns="http://www.w3.org/2000/svg">
<rect x="0.5" y="0.5" width="169" height="76.9167" rx="2.5" fill="white" stroke="#B3B0A9"/>
<path d="M50.0675 19.8347C52.0695 19.8347 53.5815 20.1147 54.6035 20.6747C55.6255 21.2347 56.1365 22.2217 56.1365 23.6357C56.1365 24.4897 55.9335 25.2107 55.5275 25.7987C55.1355 26.3867 54.5685 26.7437 53.8265 26.8697V26.9747C54.3305 27.0727 54.7855 27.2477 55.1915 27.4997C55.5975 27.7517 55.9195 28.1157 56.1575 28.5917C56.3955 29.0677 56.5145 29.6977 56.5145 30.4817C56.5145 31.8397 56.0245 32.9037 55.0445 33.6737C54.0645 34.4437 52.7205 34.8287 51.0125 34.8287H45.4055V19.8347H50.0675ZM50.4245 25.7777C51.3485 25.7777 51.9855 25.6307 52.3355 25.3367C52.6995 25.0427 52.8815 24.6157 52.8815 24.0557C52.8815 23.4817 52.6715 23.0687 52.2515 22.8167C51.8315 22.5647 51.1665 22.4387 50.2565 22.4387H48.5765V25.7777H50.4245ZM48.5765 28.2977V32.2037H50.6555C51.6075 32.2037 52.2725 32.0217 52.6505 31.6577C53.0285 31.2797 53.2175 30.7827 53.2175 30.1667C53.2175 29.6067 53.0215 29.1587 52.6295 28.8227C52.2515 28.4727 51.5585 28.2977 50.5505 28.2977H48.5765ZM65.9829 19.8347C68.0269 19.8347 69.5319 20.2057 70.4979 20.9477C71.4779 21.6897 71.9679 22.8167 71.9679 24.3287C71.9679 25.0147 71.8349 25.6167 71.5689 26.1347C71.3169 26.6387 70.9739 27.0727 70.5399 27.4367C70.1199 27.7867 69.6649 28.0737 69.1749 28.2977L73.5849 34.8287H70.0569L66.4869 29.0747H64.7859V34.8287H61.6149V19.8347H65.9829ZM65.7519 22.4387H64.7859V26.4917H65.8149C66.8649 26.4917 67.6139 26.3167 68.0619 25.9667C68.5239 25.6167 68.7549 25.0987 68.7549 24.4127C68.7549 23.6987 68.5099 23.1947 68.0199 22.9007C67.5439 22.5927 66.7879 22.4387 65.7519 22.4387ZM86.7552 34.8287L85.6632 31.2587H80.2032L79.1112 34.8287H75.6882L80.9802 19.7717H84.8652L90.1782 34.8287H86.7552ZM83.8152 25.1057C83.7452 24.8677 83.6542 24.5667 83.5422 24.2027C83.4302 23.8387 83.3182 23.4677 83.2062 23.0897C83.0942 22.7117 83.0032 22.3827 82.9332 22.1027C82.8632 22.3827 82.7652 22.7327 82.6392 23.1527C82.5272 23.5587 82.4152 23.9507 82.3032 24.3287C82.2052 24.6927 82.1282 24.9517 82.0722 25.1057L81.0012 28.5917H84.9072L83.8152 25.1057ZM107.47 34.8287H103.438L96.9072 23.4887H96.8232C96.8512 24.2027 96.8792 24.9167 96.9072 25.6307C96.9492 26.3447 96.9842 27.0587 97.0122 27.7727V34.8287H94.1772V19.8347H98.1882L104.698 31.0697H104.761C104.747 30.3697 104.726 29.6767 104.698 28.9907C104.67 28.3047 104.642 27.6187 104.614 26.9327V19.8347H107.47V34.8287ZM125.792 27.1847C125.792 29.7187 125.071 31.6297 123.629 32.9177C122.201 34.1917 120.192 34.8287 117.602 34.8287H113.36V19.8347H118.064C119.632 19.8347 120.99 20.1147 122.138 20.6747C123.3 21.2347 124.196 22.0607 124.826 23.1527C125.47 24.2307 125.792 25.5747 125.792 27.1847ZM122.495 27.2687C122.495 25.6027 122.131 24.3847 121.403 23.6147C120.675 22.8307 119.618 22.4387 118.232 22.4387H116.531V32.2037H117.896C120.962 32.2037 122.495 30.5587 122.495 27.2687Z" fill="#4E4637"/>
<path d="M49.0884 47.2167L48.4834 47.4697C48.7364 47.8217 49.0554 48.3607 49.2864 48.7897C49.1214 48.8227 48.9564 48.8227 48.8134 48.8227H43.3024C42.9394 48.8227 42.4994 48.7897 42.2024 48.7457V49.7247C42.4774 49.7137 42.8624 49.6917 43.2914 49.6917H48.9234C48.7694 50.7477 48.2634 52.2767 47.4824 53.2777C46.5584 54.4547 45.3264 55.3897 43.1924 55.9177L43.9404 56.7427C45.9534 56.1157 47.2624 55.0927 48.2744 53.8057C49.1434 52.6727 49.6714 50.9017 49.9134 49.7467C49.9574 49.5267 50.0014 49.3507 50.0784 49.1967L49.5394 48.8557L49.9574 48.6687C49.7374 48.2507 49.3414 47.5907 49.0884 47.2167ZM50.4964 46.9307L49.8914 47.1837C50.1884 47.5687 50.5514 48.1957 50.7934 48.6467L51.3984 48.3827C51.1674 47.9647 50.7714 47.3047 50.4964 46.9307ZM54.3134 48.1627V49.0757C54.6104 49.0537 54.9624 49.0427 55.3034 49.0427H59.6154C59.9894 49.0427 60.3634 49.0537 60.6274 49.0757V48.1627C60.3634 48.2067 59.9784 48.2177 59.6264 48.2177H55.3034C54.9514 48.2177 54.5994 48.2067 54.3134 48.1627ZM61.4304 51.0667L60.8034 50.6707C60.6824 50.7367 60.4514 50.7587 60.1984 50.7587H54.4014C54.1044 50.7587 53.7304 50.7367 53.3234 50.6927V51.6167C53.7194 51.5947 54.1374 51.5837 54.4014 51.5837H60.2424C60.0444 52.3757 59.6044 53.3107 58.9334 54.0147C57.9984 55.0047 56.6234 55.7087 55.0614 56.0277L55.7434 56.8087C57.1514 56.4237 58.5264 55.7747 59.6814 54.5097C60.4954 53.6187 60.9904 52.4747 61.2874 51.3857C61.3094 51.3087 61.3754 51.1657 61.4304 51.0667ZM65.2694 48.2947L64.6424 48.9657C65.4564 49.5157 66.8314 50.6927 67.3814 51.2647L68.0744 50.5717C67.4584 49.9557 66.0504 48.8117 65.2694 48.2947ZM64.3234 55.6647L64.9064 56.5667C66.7434 56.2257 68.1294 55.5547 69.2294 54.8617C70.8904 53.8167 72.1774 52.3207 72.9254 50.9457L72.3974 50.0107C71.7594 51.3637 70.4174 52.9917 68.7234 54.0587C67.6784 54.7077 66.2484 55.3787 64.3234 55.6647ZM80.9884 48.4377L80.3834 48.7127C80.7464 49.2077 81.0874 49.8127 81.3624 50.3847L81.9894 50.0987C81.7364 49.5817 81.2634 48.8447 80.9884 48.4377ZM82.3194 47.8877L81.7144 48.1737C82.0884 48.6577 82.4404 49.2407 82.7374 49.8237L83.3534 49.5157C83.0894 49.0097 82.6054 48.2727 82.3194 47.8877ZM77.1274 55.5327C77.1274 55.9397 77.1054 56.4787 77.0614 56.8307H78.1174C78.0844 56.4787 78.0514 55.8847 78.0514 55.5327V51.9137C79.2724 52.2987 81.1754 53.0247 82.3634 53.6737L82.7484 52.7387C81.5824 52.1557 79.5034 51.3747 78.0514 50.9237V49.1307C78.0514 48.8007 78.0844 48.3277 78.1284 47.9867H77.0394C77.1054 48.3277 77.1274 48.8227 77.1274 49.1307V55.5327ZM89.5904 47.7777L88.5674 47.6677C88.5674 48.4157 88.4574 49.2737 88.2814 50.0657C87.6214 50.1207 86.9724 50.1757 86.6094 50.1867C86.2574 50.1977 85.9714 50.2087 85.6304 50.1867L85.7184 51.1437C86.0044 51.0997 86.4554 51.0447 86.7084 51.0117C86.9944 50.9787 87.5224 50.9127 88.1054 50.8577C87.7314 52.3317 86.9064 54.8397 85.7844 56.3467L86.6864 56.6987C87.8414 54.8397 88.5894 52.3537 88.9964 50.7697C89.4804 50.7257 89.9204 50.6927 90.1844 50.6927C90.8774 50.6927 91.3504 50.8797 91.3504 51.8917C91.3504 53.0797 91.1744 54.5097 90.8224 55.2577C90.6024 55.7307 90.2724 55.8187 89.8654 55.8187C89.5574 55.8187 88.9744 55.7417 88.5124 55.5987L88.6554 56.5117C89.0074 56.5997 89.5354 56.6767 89.9534 56.6767C90.6684 56.6767 91.2074 56.4897 91.5594 55.7527C92.0214 54.8397 92.1974 53.0907 92.1974 51.7817C92.1974 50.2967 91.3944 49.9227 90.4154 49.9227C90.1514 49.9227 89.6894 49.9557 89.1724 49.9997C89.2934 49.3947 89.3924 48.7457 89.4584 48.4267C89.5024 48.2177 89.5464 47.9757 89.5904 47.7777ZM93.3744 48.9437L92.5714 49.3067C93.3524 50.2197 94.2104 52.1557 94.5294 53.2887L95.3874 52.8817C95.0134 51.8587 94.0564 49.8347 93.3744 48.9437ZM99.4574 47.7337L99.2374 48.5697C100.073 48.8007 102.46 49.2847 103.505 49.4277L103.714 48.5807C102.746 48.4927 100.403 48.0307 99.4574 47.7337ZM99.2154 49.7357L98.2914 49.6147C98.2254 50.7697 97.9504 53.0797 97.7304 54.0807L98.5444 54.2787C98.6104 54.1027 98.7094 53.9157 98.8744 53.7287C99.6444 52.8047 100.832 52.2547 102.284 52.2547C103.406 52.2547 104.22 52.8817 104.22 53.7617C104.22 55.2687 102.526 56.2697 99.0504 55.8407L99.3144 56.7427C103.406 57.0837 105.144 55.7527 105.144 53.7837C105.144 52.4967 104.022 51.4847 102.339 51.4847C101.019 51.4847 99.8094 51.9027 98.7534 52.8267C98.8744 52.1227 99.0614 50.4837 99.2154 49.7357ZM114.384 48.8117V50.7477C114.384 51.4737 114.56 51.6827 115.352 51.6827H116.43C117.024 51.6827 117.233 51.4077 117.31 50.3297C117.101 50.2747 116.804 50.1647 116.65 50.0547C116.628 50.9017 116.573 51.0227 116.331 51.0227H115.44C115.176 51.0227 115.132 50.9787 115.132 50.7477V48.8117H114.384ZM111.612 48.4597H116.353V49.6807H117.09V47.7557H110.908V49.7247H111.612V48.4597ZM112.635 48.8337C112.547 50.2417 112.228 50.9567 110.655 51.3417C110.809 51.4847 110.996 51.7487 111.062 51.9357C112.866 51.4407 113.284 50.5277 113.394 48.8337H112.635ZM110.6 52.5407L110.49 51.7817C110.127 51.9027 109.764 52.0237 109.401 52.1337V50.1097H110.578V49.3617H109.401V47.1617H108.642V49.3617H107.267V50.1097H108.642V52.3647C108.07 52.5407 107.542 52.7057 107.124 52.8157L107.333 53.6077L108.642 53.1787V56.2477C108.642 56.4127 108.587 56.4457 108.455 56.4457C108.323 56.4567 107.894 56.4567 107.421 56.4457C107.531 56.6657 107.63 57.0067 107.663 57.1937C108.345 57.2047 108.763 57.1717 109.027 57.0507C109.302 56.9187 109.401 56.6987 109.401 56.2477V52.9367L110.6 52.5407ZM117.178 53.5307V52.7827H114.307V51.6057H113.515V52.7827H110.721V53.5307H112.987C112.338 54.6417 111.26 55.6097 110.127 56.0937C110.314 56.2477 110.534 56.5337 110.655 56.7207C111.777 56.1597 112.811 55.1697 113.515 53.9927V57.1937H114.307V53.9817C114.978 55.0927 115.946 56.1047 116.914 56.6657C117.046 56.4677 117.31 56.1817 117.486 56.0277C116.485 55.5327 115.462 54.5647 114.835 53.5307H117.178ZM124.669 47.6457H123.668C123.679 47.7337 123.723 48.0527 123.734 48.3387C123.745 48.4927 123.756 48.7567 123.756 49.0647C122.117 49.0867 120.049 49.1527 118.828 49.1747L118.85 50.0217C120.225 49.9227 122.095 49.8457 123.767 49.8347C123.778 50.2197 123.778 50.6157 123.778 50.9457C123.558 50.8687 123.316 50.8247 123.041 50.8247C121.996 50.8247 121.105 51.6497 121.105 52.7387C121.105 53.9377 121.985 54.5757 122.909 54.5757C123.283 54.5757 123.602 54.4767 123.866 54.2787C123.426 55.2797 122.414 55.8957 120.951 56.2257L121.688 56.9517C124.251 56.1817 124.977 54.5317 124.977 53.0467C124.977 52.4967 124.856 52.0127 124.625 51.6387C124.614 51.1327 124.603 50.4507 124.603 49.8237C124.658 49.8237 124.702 49.8237 124.757 49.8237C126.363 49.8237 127.364 49.8457 127.98 49.8787L127.991 49.0647C127.463 49.0647 126.11 49.0537 124.768 49.0537C124.713 49.0537 124.658 49.0537 124.603 49.0537C124.603 48.7567 124.614 48.5037 124.614 48.3387C124.625 48.1957 124.647 47.7667 124.669 47.6457ZM121.93 52.7277C121.93 52.0127 122.469 51.5617 123.041 51.5617C123.47 51.5617 123.844 51.7707 124.02 52.2547C124.119 53.2997 123.701 53.8167 123.052 53.8167C122.436 53.8167 121.93 53.4097 121.93 52.7277Z" fill="#555555"/>
<g clip-path="url(#clip0_4_129)">
<path d="M156.844 42.4996L157.716 43.372L162.645 38.4433L157.716 33.5147L156.844 34.3871L160.9 38.4433L156.844 42.4996Z" fill="#666666"/>
</g>
<defs>
<clipPath id="clip0_4_129">
<rect width="11.8287" height="11.8287" fill="white" transform="translate(153.773 32.529)"/>
</clipPath>
</defs>
</svg>
