<svg width="170" height="80" viewBox="0 0 170 80" fill="none" xmlns="http://www.w3.org/2000/svg">
<rect x="0.5" y="0.5" width="169" height="78.045" rx="2.5" fill="white" stroke="#B3B0A9"/>
<path d="M35.2515 22.442C34.0335 22.442 33.1025 22.897 32.4585 23.807C31.8145 24.717 31.4925 25.963 31.4925 27.545C31.4925 29.141 31.7865 30.38 32.3745 31.262C32.9765 32.13 33.9355 32.564 35.2515 32.564C35.8675 32.564 36.4765 32.494 37.0785 32.354C37.6945 32.214 38.3595 32.018 39.0735 31.766V34.433C38.4155 34.699 37.7645 34.895 37.1205 35.021C36.4765 35.147 35.7555 35.21 34.9575 35.21C33.4175 35.21 32.1435 34.895 31.1355 34.265C30.1415 33.621 29.4065 32.725 28.9305 31.577C28.4545 30.415 28.2165 29.064 28.2165 27.524C28.2165 26.012 28.4895 24.675 29.0355 23.513C29.5815 22.351 30.3725 21.441 31.4085 20.783C32.4585 20.125 33.7395 19.796 35.2515 19.796C35.9935 19.796 36.7355 19.894 37.4775 20.09C38.2335 20.272 38.9545 20.524 39.6405 20.846L38.6115 23.429C38.0515 23.163 37.4845 22.932 36.9105 22.736C36.3505 22.54 35.7975 22.442 35.2515 22.442ZM52.4866 35L51.3946 31.43H45.9346L44.8426 35H41.4196L46.7116 19.943H50.5966L55.9096 35H52.4866ZM49.5466 25.277C49.4766 25.039 49.3856 24.738 49.2736 24.374C49.1616 24.01 49.0496 23.639 48.9376 23.261C48.8256 22.883 48.7346 22.554 48.6646 22.274C48.5946 22.554 48.4966 22.904 48.3706 23.324C48.2586 23.73 48.1466 24.122 48.0346 24.5C47.9366 24.864 47.8596 25.123 47.8036 25.277L46.7326 28.763H50.6386L49.5466 25.277ZM63.1571 35H59.9861V22.652H55.9121V20.006H67.2311V22.652H63.1571V35ZM79.2242 35H70.5932V20.006H79.2242V22.61H73.7642V25.907H78.8462V28.511H73.7642V32.375H79.2242V35ZM89.0852 26.579H95.0282V34.349C94.2442 34.615 93.4252 34.825 92.5712 34.979C91.7312 35.133 90.7722 35.21 89.6942 35.21C87.4542 35.21 85.7322 34.552 84.5282 33.236C83.3242 31.92 82.7222 30.002 82.7222 27.482C82.7222 25.914 83.0232 24.556 83.6252 23.408C84.2412 22.26 85.1302 21.371 86.2922 20.741C87.4542 20.111 88.8752 19.796 90.5552 19.796C91.3532 19.796 92.1372 19.88 92.9072 20.048C93.6772 20.216 94.3772 20.44 95.0072 20.72L93.9572 23.261C93.4952 23.023 92.9702 22.827 92.3822 22.673C91.7942 22.519 91.1782 22.442 90.5342 22.442C89.6102 22.442 88.8052 22.652 88.1192 23.072C87.4472 23.492 86.9222 24.087 86.5442 24.857C86.1802 25.613 85.9982 26.509 85.9982 27.545C85.9982 28.525 86.1312 29.393 86.3972 30.149C86.6632 30.905 87.0832 31.5 87.6572 31.934C88.2312 32.354 88.9802 32.564 89.9042 32.564C90.3522 32.564 90.7302 32.543 91.0382 32.501C91.3602 32.459 91.6542 32.41 91.9202 32.354V29.225H89.0852V26.579ZM113.248 27.482C113.248 29.036 112.989 30.394 112.471 31.556C111.967 32.704 111.19 33.6 110.14 34.244C109.09 34.888 107.746 35.21 106.108 35.21C104.484 35.21 103.14 34.888 102.076 34.244C101.026 33.6 100.242 32.697 99.7245 31.535C99.2205 30.373 98.9685 29.015 98.9685 27.461C98.9685 25.907 99.2205 24.556 99.7245 23.408C100.242 22.26 101.026 21.371 102.076 20.741C103.14 20.097 104.491 19.775 106.129 19.775C107.753 19.775 109.09 20.097 110.14 20.741C111.19 21.371 111.967 22.267 112.471 23.429C112.989 24.577 113.248 25.928 113.248 27.482ZM102.307 27.482C102.307 29.05 102.608 30.289 103.21 31.199C103.812 32.095 104.778 32.543 106.108 32.543C107.466 32.543 108.439 32.095 109.027 31.199C109.615 30.289 109.909 29.05 109.909 27.482C109.909 25.9 109.615 24.661 109.027 23.765C108.439 22.869 107.473 22.421 106.129 22.421C104.785 22.421 103.812 22.869 103.21 23.765C102.608 24.661 102.307 25.9 102.307 27.482ZM121.772 20.006C123.816 20.006 125.321 20.377 126.287 21.119C127.267 21.861 127.757 22.988 127.757 24.5C127.757 25.186 127.624 25.788 127.358 26.306C127.106 26.81 126.763 27.244 126.329 27.608C125.909 27.958 125.454 28.245 124.964 28.469L129.374 35H125.846L122.276 29.246H120.575V35H117.404V20.006H121.772ZM121.541 22.61H120.575V26.663H121.604C122.654 26.663 123.403 26.488 123.851 26.138C124.313 25.788 124.544 25.27 124.544 24.584C124.544 23.87 124.299 23.366 123.809 23.072C123.333 22.764 122.577 22.61 121.541 22.61ZM136.98 26.18L140.109 20.006H143.532L138.555 29.162V35H135.405V29.267L130.428 20.006H133.872L136.98 26.18Z" fill="#4E4637"/>
<path d="M43.0604 48.343H42.0264C42.0704 48.607 42.1034 49.014 42.1034 49.256C42.1034 49.652 42.0814 50.026 42.0594 50.378H40.1234C39.7054 50.378 39.2544 50.356 38.8694 50.312V51.247C39.2544 51.203 39.7054 51.203 40.1344 51.203H41.9824C41.6854 53.469 40.8934 54.844 39.8044 55.834C39.4744 56.153 39.0234 56.461 38.6714 56.648L39.4744 57.297C41.3114 56.032 42.4554 54.36 42.8514 51.203H45.9314C45.9314 52.38 45.7884 55.086 45.3704 55.922C45.2494 56.197 45.0514 56.285 44.7324 56.285C44.2704 56.285 43.6874 56.241 43.0934 56.164L43.2034 57.077C43.7754 57.11 44.4134 57.154 44.9744 57.154C45.5794 57.154 45.9314 56.945 46.1514 56.483C46.6464 55.427 46.7784 52.226 46.8224 51.17C46.8224 51.027 46.8444 50.818 46.8774 50.631L46.2614 50.323C46.0744 50.356 45.8544 50.378 45.5574 50.378H42.9394C42.9614 50.015 42.9834 49.641 42.9944 49.245C43.0054 48.981 43.0274 48.596 43.0604 48.343ZM50.2874 48.86V49.773C50.5624 49.751 50.9254 49.74 51.2884 49.74H55.7324C56.0514 49.74 56.4364 49.751 56.7554 49.773V48.86C56.4364 48.904 56.0404 48.926 55.7324 48.926H51.2774C50.9254 48.926 50.5954 48.893 50.2874 48.86ZM48.9674 51.621V52.534C49.2754 52.512 49.5944 52.512 49.9244 52.512H53.2244C53.1914 53.546 53.0704 54.47 52.5864 55.24C52.1574 55.933 51.3654 56.571 50.5074 56.923L51.3214 57.528C52.2564 57.044 53.0924 56.252 53.4884 55.515C53.9284 54.701 54.1044 53.7 54.1374 52.512H57.1294C57.3934 52.512 57.7454 52.523 57.9874 52.534V51.621C57.7234 51.665 57.3604 51.676 57.1294 51.676H49.9244C49.5834 51.676 49.2754 51.654 48.9674 51.621ZM66.4464 47.925L65.8524 48.178C66.1274 48.563 66.5124 49.201 66.7214 49.663L67.3374 49.388C67.1174 48.97 66.7104 48.299 66.4464 47.925ZM67.8434 47.606L67.2384 47.859C67.5354 48.244 67.8874 48.871 68.1294 49.322L68.7454 49.058C68.5144 48.64 68.1074 47.98 67.8434 47.606ZM60.0554 49.784V50.763C60.3084 50.752 60.8474 50.73 61.2654 50.73H66.5344V55.922H61.1334C60.6714 55.922 60.1874 55.889 59.9124 55.856V56.857C60.2094 56.835 60.7044 56.813 61.1554 56.813H66.5344C66.5234 57.077 66.5124 57.308 66.5124 57.429H67.5024C67.4914 57.253 67.4584 56.758 67.4584 56.362V50.686C67.4584 50.422 67.4804 50.081 67.4914 49.828C67.2714 49.839 66.9414 49.85 66.6664 49.85H61.2544C60.9024 49.85 60.4184 49.828 60.0554 49.784ZM77.3584 48.651H76.3244C76.3574 48.926 76.3794 49.234 76.3794 49.608V51.346C76.3794 53.425 76.2474 54.316 75.4664 55.229C74.7844 55.999 73.8494 56.439 72.8374 56.692L73.5524 57.451C74.3554 57.176 75.4554 56.703 76.1704 55.845C76.9624 54.899 77.3254 54.03 77.3254 51.39V49.608C77.3254 49.234 77.3364 48.926 77.3584 48.651ZM72.2544 48.739H71.2534C71.2754 48.948 71.2974 49.333 71.2974 49.531V53.194C71.2974 53.524 71.2644 53.876 71.2424 54.041H72.2544C72.2324 53.843 72.2104 53.48 72.2104 53.205V49.531C72.2104 49.267 72.2324 48.948 72.2544 48.739ZM80.3944 52.237V53.315C80.7354 53.282 81.3184 53.26 81.9234 53.26H87.9624C88.4574 53.26 88.9194 53.304 89.1394 53.315V52.237C88.8974 52.259 88.5014 52.292 87.9514 52.292H81.9234C81.3074 52.292 80.7244 52.259 80.3944 52.237ZM94.5404 48.42L93.5174 48.31C93.5174 49.058 93.4074 49.916 93.2314 50.708C92.5714 50.763 91.9224 50.818 91.5594 50.829C91.2074 50.84 90.9214 50.851 90.5804 50.829L90.6684 51.786C90.9544 51.742 91.4054 51.687 91.6584 51.654C91.9444 51.621 92.4724 51.555 93.0554 51.5C92.6814 52.974 91.8564 55.482 90.7344 56.989L91.6364 57.341C92.7914 55.482 93.5394 52.996 93.9464 51.412C94.4304 51.368 94.8704 51.335 95.1344 51.335C95.8274 51.335 96.3004 51.522 96.3004 52.534C96.3004 53.722 96.1244 55.152 95.7724 55.9C95.5524 56.373 95.2224 56.461 94.8154 56.461C94.5074 56.461 93.9244 56.384 93.4624 56.241L93.6054 57.154C93.9574 57.242 94.4854 57.319 94.9034 57.319C95.6184 57.319 96.1574 57.132 96.5094 56.395C96.9714 55.482 97.1474 53.733 97.1474 52.424C97.1474 50.939 96.3444 50.565 95.3654 50.565C95.1014 50.565 94.6394 50.598 94.1224 50.642C94.2434 50.037 94.3424 49.388 94.4084 49.069C94.4524 48.86 94.4964 48.618 94.5404 48.42ZM98.3244 49.586L97.5214 49.949C98.3024 50.862 99.1604 52.798 99.4794 53.931L100.337 53.524C99.9634 52.501 99.0064 50.477 98.3244 49.586ZM103.857 48.376L103.637 49.212C104.473 49.443 106.86 49.927 107.905 50.07L108.114 49.223C107.146 49.135 104.803 48.673 103.857 48.376ZM103.615 50.378L102.691 50.257C102.625 51.412 102.35 53.722 102.13 54.723L102.944 54.921C103.01 54.745 103.109 54.558 103.274 54.371C104.044 53.447 105.232 52.897 106.684 52.897C107.806 52.897 108.62 53.524 108.62 54.404C108.62 55.911 106.926 56.912 103.45 56.483L103.714 57.385C107.806 57.726 109.544 56.395 109.544 54.426C109.544 53.139 108.422 52.127 106.739 52.127C105.419 52.127 104.209 52.545 103.153 53.469C103.274 52.765 103.461 51.126 103.615 50.378ZM118.234 49.454V51.39C118.234 52.116 118.41 52.325 119.202 52.325H120.28C120.874 52.325 121.083 52.05 121.16 50.972C120.951 50.917 120.654 50.807 120.5 50.697C120.478 51.544 120.423 51.665 120.181 51.665H119.29C119.026 51.665 118.982 51.621 118.982 51.39V49.454H118.234ZM115.462 49.102H120.203V50.323H120.94V48.398H114.758V50.367H115.462V49.102ZM116.485 49.476C116.397 50.884 116.078 51.599 114.505 51.984C114.659 52.127 114.846 52.391 114.912 52.578C116.716 52.083 117.134 51.17 117.244 49.476H116.485ZM114.45 53.183L114.34 52.424C113.977 52.545 113.614 52.666 113.251 52.776V50.752H114.428V50.004H113.251V47.804H112.492V50.004H111.117V50.752H112.492V53.007C111.92 53.183 111.392 53.348 110.974 53.458L111.183 54.25L112.492 53.821V56.89C112.492 57.055 112.437 57.088 112.305 57.088C112.173 57.099 111.744 57.099 111.271 57.088C111.381 57.308 111.48 57.649 111.513 57.836C112.195 57.847 112.613 57.814 112.877 57.693C113.152 57.561 113.251 57.341 113.251 56.89V53.579L114.45 53.183ZM121.028 54.173V53.425H118.157V52.248H117.365V53.425H114.571V54.173H116.837C116.188 55.284 115.11 56.252 113.977 56.736C114.164 56.89 114.384 57.176 114.505 57.363C115.627 56.802 116.661 55.812 117.365 54.635V57.836H118.157V54.624C118.828 55.735 119.796 56.747 120.764 57.308C120.896 57.11 121.16 56.824 121.336 56.67C120.335 56.175 119.312 55.207 118.685 54.173H121.028ZM127.969 48.288H126.968C126.979 48.376 127.023 48.695 127.034 48.981C127.045 49.135 127.056 49.399 127.056 49.707C125.417 49.729 123.349 49.795 122.128 49.817L122.15 50.664C123.525 50.565 125.395 50.488 127.067 50.477C127.078 50.862 127.078 51.258 127.078 51.588C126.858 51.511 126.616 51.467 126.341 51.467C125.296 51.467 124.405 52.292 124.405 53.381C124.405 54.58 125.285 55.218 126.209 55.218C126.583 55.218 126.902 55.119 127.166 54.921C126.726 55.922 125.714 56.538 124.251 56.868L124.988 57.594C127.551 56.824 128.277 55.174 128.277 53.689C128.277 53.139 128.156 52.655 127.925 52.281C127.914 51.775 127.903 51.093 127.903 50.466C127.958 50.466 128.002 50.466 128.057 50.466C129.663 50.466 130.664 50.488 131.28 50.521L131.291 49.707C130.763 49.707 129.41 49.696 128.068 49.696C128.013 49.696 127.958 49.696 127.903 49.696C127.903 49.399 127.914 49.146 127.914 48.981C127.925 48.838 127.947 48.409 127.969 48.288ZM125.23 53.37C125.23 52.655 125.769 52.204 126.341 52.204C126.77 52.204 127.144 52.413 127.32 52.897C127.419 53.942 127.001 54.459 126.352 54.459C125.736 54.459 125.23 54.052 125.23 53.37Z" fill="#555555"/>
<path d="M156.844 43.115L157.716 44L162.645 39L157.716 34L156.844 34.885L160.9 39L156.844 43.115Z" fill="#666666"/>
</svg>
