<svg width="56" height="23" viewBox="0 0 56 23" fill="none" xmlns="http://www.w3.org/2000/svg">
<path d="M24.338 11.202C24.4313 11.9113 24.5107 12.5973 24.576 13.26C24.6413 13.9133 24.674 14.6087 24.674 15.346V19H22.728V9.298H25.598L28.062 17.068C27.838 15.6307 27.726 14.2773 27.726 13.008V9.298H29.672V19H26.886L24.338 11.202ZM34.5945 11.314C35.7239 11.314 36.6059 11.6733 37.2405 12.392C37.8845 13.1013 38.2065 14.058 38.2065 15.262C38.2065 16.5127 37.8892 17.488 37.2545 18.188C36.6199 18.888 35.7332 19.238 34.5945 19.238C33.4559 19.238 32.5692 18.8927 31.9345 18.202C31.2999 17.502 30.9825 16.5267 30.9825 15.276C30.9825 14.4827 31.1225 13.792 31.4025 13.204C31.6919 12.6067 32.1072 12.1447 32.6485 11.818C33.1992 11.482 33.8479 11.314 34.5945 11.314ZM34.5945 12.952C34.1372 12.952 33.8012 13.1387 33.5865 13.512C33.3719 13.876 33.2645 14.464 33.2645 15.276C33.2645 16.0973 33.3719 16.6947 33.5865 17.068C33.8012 17.432 34.1372 17.614 34.5945 17.614C35.0519 17.614 35.3879 17.4273 35.6025 17.054C35.8172 16.6807 35.9245 16.0833 35.9245 15.262C35.9245 14.4593 35.8172 13.876 35.6025 13.512C35.3879 13.1387 35.0519 12.952 34.5945 12.952ZM41.4351 17.67C41.4351 17.25 41.5844 16.886 41.8831 16.578C42.1911 16.27 42.5597 16.116 42.9891 16.116C43.4184 16.116 43.7824 16.27 44.0811 16.578C44.3891 16.886 44.5431 17.25 44.5431 17.67C44.5431 18.0993 44.3891 18.468 44.0811 18.776C43.7824 19.084 43.4184 19.238 42.9891 19.238C42.5597 19.238 42.1911 19.084 41.8831 18.776C41.5844 18.468 41.4351 18.0993 41.4351 17.67ZM50.9916 9.046C51.6636 9.046 52.2469 9.158 52.7416 9.382C53.2456 9.606 53.6283 9.90933 53.8896 10.292C54.1603 10.6653 54.2956 11.0807 54.2956 11.538C54.2956 12.1353 54.1183 12.6253 53.7636 13.008C53.4183 13.3907 52.9329 13.6753 52.3076 13.862C53.8383 14.0673 54.6036 14.87 54.6036 16.27C54.6036 16.8207 54.4496 17.3247 54.1416 17.782C53.8429 18.23 53.4089 18.5847 52.8396 18.846C52.2703 19.1073 51.6076 19.238 50.8516 19.238C50.1423 19.238 49.4983 19.112 48.9196 18.86C48.3409 18.608 47.8463 18.2487 47.4356 17.782L48.6816 16.62C49.2136 17.236 49.8856 17.544 50.6976 17.544C51.1923 17.544 51.5889 17.418 51.8876 17.166C52.1863 16.914 52.3356 16.564 52.3356 16.116C52.3356 15.1453 51.7896 14.66 50.6976 14.66H49.8156L50.0676 13.148H50.6836C51.1316 13.148 51.4863 13.0407 51.7476 12.826C52.0183 12.602 52.1536 12.2847 52.1536 11.874C52.1536 11.51 52.0229 11.2253 51.7616 11.02C51.5003 10.8053 51.1596 10.698 50.7396 10.698C50.0396 10.698 49.3956 10.978 48.8076 11.538L47.6736 10.362C48.5789 9.48467 49.6849 9.046 50.9916 9.046Z" fill="#AC7146"/>
<path d="M2.39016 4.55812C2.39016 5.21792 1.85488 5.75319 1.19508 5.75319C0.534688 5.75315 0 5.21788 0 4.55812C0 3.89835 0.534688 3.36304 1.19508 3.36304C1.85484 3.36304 2.39016 3.89831 2.39016 4.55812Z" fill="#AC7146"/>
<path d="M20 4.55812C20 5.21792 19.4653 5.75319 18.8049 5.75319C18.1451 5.75319 17.6099 5.21792 17.6099 4.55812C17.6099 3.89831 18.1451 3.36304 18.8049 3.36304C19.4654 3.36304 20 3.89831 20 4.55812Z" fill="#AC7146"/>
<path d="M11.1951 2.55616C11.1951 3.21597 10.6598 3.75062 10 3.75062C9.34021 3.75062 8.80493 3.21593 8.80493 2.55616C8.80493 1.89577 9.34021 1.36108 10 1.36108C10.6598 1.36108 11.1951 1.89573 11.1951 2.55616Z" fill="#AC7146"/>
<path d="M17.0062 14.8889L18.0505 6.82249L13.7933 9.83093L10 4.81995L6.20669 9.83093L1.94946 6.82249L2.9938 14.8889H17.0062Z" fill="#AC7146"/>
<path d="M3.15552 16.1389L3.47903 18.6389H10H16.521L16.8445 16.1389H3.15552Z" fill="#AC7146"/>
</svg>
