<svg width="20" height="21" viewBox="0 0 20 21" fill="none" xmlns="http://www.w3.org/2000/svg">
<path d="M19.13 10.8599C19.03 10.5999 19.03 10.3199 19.13 10.0599L19.93 7.96994C20.12 7.47994 19.94 6.91994 19.5 6.62994L17.63 5.40994C17.4 5.25994 17.23 5.02994 17.16 4.75994L16.58 2.59994C16.44 2.08994 15.97 1.74994 15.44 1.76994L13.2 1.89994C12.93 1.90994 12.66 1.82994 12.44 1.64994L10.7 0.249941C10.29 -0.0800586 9.70003 -0.0800586 9.29003 0.249941L7.55003 1.64994C7.34003 1.81994 7.07003 1.90994 6.80003 1.89994L4.57003 1.77994C4.04003 1.74994 3.57003 2.09994 3.43003 2.60994L2.85003 4.76994C2.78003 5.02994 2.61003 5.25994 2.38003 5.40994L0.510026 6.62994C0.0700262 6.91994 -0.109974 7.47994 0.0700262 7.96994L0.870026 10.0599C0.970026 10.3199 0.970026 10.5999 0.870026 10.8599L0.0700262 12.9499C-0.119974 13.4399 0.0600262 13.9999 0.500026 14.2899L2.37003 15.5099C2.60003 15.6599 2.77003 15.8899 2.84003 16.1499L3.42003 18.3099C3.56003 18.8199 4.03003 19.1599 4.56003 19.1399L6.79003 19.0299C7.06003 19.0199 7.33003 19.0999 7.55003 19.2799L9.29003 20.6799C9.70003 21.0099 10.29 21.0099 10.7 20.6799L12.44 19.2799C12.65 19.1099 12.92 19.0199 13.2 19.0299L15.43 19.1399C15.96 19.1699 16.43 18.8199 16.57 18.3099L17.15 16.1499C17.22 15.8799 17.39 15.6599 17.62 15.5099L19.49 14.2899C19.93 13.9999 20.11 13.4499 19.92 12.9499L19.13 10.8599ZM8.00003 12.8999L7.33003 13.0299C7.28003 13.0399 7.25003 13.0299 7.22003 12.9899L5.40003 10.8699L5.37003 10.8799L5.84003 13.2699C5.85003 13.2999 5.83003 13.3299 5.79003 13.3399L5.16003 13.4599C5.13003 13.4699 5.10003 13.4499 5.09003 13.4099L4.39003 9.71994C4.38003 9.67994 4.40003 9.65994 4.43003 9.64994L5.10003 9.51994C5.14003 9.50994 5.18003 9.51994 5.21003 9.55994L7.02003 11.6899L7.05003 11.6799L6.58003 9.28994C6.57003 9.24994 6.59003 9.22994 6.62003 9.21994L7.26003 9.09994C7.29003 9.08994 7.32003 9.10994 7.33003 9.14994L8.06003 12.8399C8.06003 12.8599 8.04003 12.8899 8.00003 12.8999ZM11.28 12.2499L8.84003 12.7299C8.81003 12.7399 8.78003 12.7199 8.77003 12.6799L8.05003 8.99994C8.04003 8.95994 8.06003 8.93994 8.10003 8.92994L10.54 8.44994C10.57 8.43994 10.6 8.45994 10.61 8.49994L10.73 9.09994C10.74 9.12994 10.72 9.15994 10.68 9.16994L9.03003 9.47994C9.01003 9.48994 9.00003 9.49994 9.01003 9.51994L9.16003 10.2699C9.16003 10.2899 9.18003 10.2999 9.20003 10.2999L10.56 10.0299C10.59 10.0199 10.62 10.0399 10.63 10.0799L10.75 10.6699C10.76 10.6999 10.74 10.7299 10.7 10.7399L9.34003 11.0099C9.32003 11.0099 9.31003 11.0299 9.31003 11.0499L9.47003 11.8399C9.47003 11.8599 9.49003 11.8699 9.51003 11.8699L11.15 11.5499C11.18 11.5399 11.21 11.5599 11.22 11.5999L11.34 12.1999C11.33 12.2199 11.31 12.2399 11.28 12.2499ZM15.36 11.3899C15.36 11.4199 15.34 11.4499 15.3 11.4599L14.74 11.5699C14.7 11.5799 14.67 11.5599 14.66 11.5299L13.53 9.29994H13.52L13.32 11.7899C13.31 11.8299 13.3 11.8499 13.26 11.8599L12.7 11.9699C12.67 11.9799 12.64 11.9599 12.62 11.9299L10.91 8.43994C10.9 8.40994 10.9 8.37994 10.94 8.36994L11.66 8.22994C11.7 8.21994 11.73 8.23994 11.74 8.26994L12.76 10.5499H12.77L12.95 8.03994C12.95 7.99994 12.97 7.97994 13.01 7.96994L13.5 7.86994C13.53 7.85994 13.56 7.87994 13.58 7.90994L14.72 10.1599H14.73L14.79 7.66994C14.79 7.62994 14.81 7.60994 14.85 7.59994L15.57 7.45994C15.61 7.44994 15.62 7.46994 15.63 7.50994L15.36 11.3899Z" fill="black"/>
</svg>
